<?xml version="1.0" standalone="no"?>
<!DOCTYPE svg PUBLIC "-//W3C//DTD SVG 20010904//EN"
 "http://www.w3.org/TR/2001/REC-SVG-20010904/DTD/svg10.dtd">
<svg version="1.0" xmlns="http://www.w3.org/2000/svg"
 width="1400.000000pt" height="1400.000000pt" viewBox="0 0 1400.000000 1400.000000"
 preserveAspectRatio="xMidYMid meet">
<metadata>
Created by potrace 1.11, written by Peter Selinger 2001-2013
</metadata>
<g transform="translate(0.000000,1400.000000) scale(0.100000,-0.100000)"
fill="#000000" stroke="none">
<path d="M1612 13928 c6 -18 28 -21 28 -4 0 9 -7 16 -16 16 -9 0 -14 -5 -12
-12z"/>
<path d="M2607 13823 c-4 -3 -7 -11 -7 -17 0 -6 5 -5 12 2 6 6 9 14 7 17 -3 3
-9 2 -12 -2z"/>
<path d="M3246 13691 c-4 -5 -2 -12 3 -15 5 -4 12 -2 15 3 4 5 2 12 -3 15 -5
4 -12 2 -15 -3z"/>
<path d="M13231 12654 c0 -11 3 -14 6 -6 3 7 2 16 -1 19 -3 4 -6 -2 -5 -13z"/>
<path d="M13445 12040 c3 -5 10 -10 16 -10 5 0 9 5 9 10 0 6 -7 10 -16 10 -8
0 -12 -4 -9 -10z"/>
<path d="M12360 11785 c-7 -8 -18 -32 -25 -52 -17 -48 -38 -49 -45 -3 -6 41
-31 48 -40 10 -5 -22 -11 -25 -48 -25 -44 0 -62 -14 -62 -47 0 -9 4 -19 9 -23
6 -3 8 -34 5 -70 -4 -56 -2 -64 15 -70 15 -4 20 -19 26 -69 3 -35 12 -72 20
-82 13 -18 14 -18 33 -1 17 15 21 16 31 3 10 -11 8 -23 -9 -55 -22 -44 -31
-49 -50 -26 -7 8 -24 15 -38 15 -14 0 -36 9 -48 21 l-22 21 -21 -21 c-25 -25
-40 -26 -56 -4 -7 9 -17 13 -23 9 -19 -11 -14 -26 8 -26 25 0 26 -27 4 -67
-16 -27 -16 -30 15 -75 18 -27 29 -52 26 -58 -10 -15 -65 -12 -65 4 0 7 -7 19
-15 26 -19 16 -19 39 0 60 10 11 13 27 9 49 -9 44 -28 33 -32 -17 -4 -58 -20
-55 -64 11 -14 21 -36 45 -47 54 -19 13 -26 12 -66 -7 -24 -12 -49 -19 -54
-15 -6 3 -13 21 -17 40 -9 48 -20 52 -40 13 -20 -40 -30 -47 -55 -41 -33 9
-65 -22 -83 -81 -13 -40 -23 -56 -35 -56 -10 0 -28 -11 -41 -25 -21 -22 -22
-28 -12 -62 25 -84 25 -81 -10 -103 -31 -19 -34 -19 -45 -3 -7 9 -13 25 -13
34 0 24 -20 35 -31 18 -5 -8 -9 -27 -9 -42 0 -36 -16 -67 -35 -67 -23 0 -18
-36 10 -66 32 -34 29 -55 -9 -65 -35 -10 -46 -24 -46 -64 0 -17 -4 -35 -9 -40
-9 -10 -14 -37 -12 -63 2 -19 66 -5 109 24 19 13 50 24 68 24 18 0 36 5 39 10
10 16 42 11 49 -7 4 -9 -1 -33 -10 -53 -9 -19 -20 -41 -24 -49 -12 -26 -27
-23 -40 9 -15 35 -28 37 -63 10 -14 -11 -30 -20 -35 -20 -5 0 -16 -10 -25 -22
-8 -13 -31 -41 -51 -63 -30 -33 -38 -37 -46 -25 -5 8 -10 21 -10 28 0 6 -10
12 -21 12 -18 0 -20 -4 -15 -32 3 -21 0 -40 -9 -52 -17 -22 -20 -56 -6 -56 6
0 13 5 16 10 8 14 38 13 53 -2 8 -8 4 -20 -17 -47 -15 -20 -31 -49 -35 -64 -5
-22 -11 -27 -24 -22 -32 12 -34 10 -46 -35 -11 -43 -13 -45 -45 -42 -19 1 -45
-5 -58 -14 -32 -20 -49 -13 -69 30 -20 41 -12 82 16 91 24 7 26 37 5 55 -21
18 -19 47 5 60 19 10 28 40 12 40 -5 0 -19 -12 -33 -27 -18 -22 -24 -39 -24
-77 0 -48 -1 -50 -35 -59 -50 -13 -90 -44 -90 -71 0 -17 -6 -22 -21 -22 -12 1
-26 -7 -33 -17 -9 -15 -7 -21 14 -37 25 -20 22 -24 -15 -21 -22 2 -55 -52 -55
-89 0 -10 -9 -26 -21 -34 -12 -8 -18 -19 -14 -26 5 -8 11 -8 21 1 11 9 19 6
39 -15 14 -15 29 -25 34 -21 15 8 25 -15 12 -28 -6 -6 -11 -28 -11 -49 0 -27
-5 -40 -19 -48 -34 -18 -42 -12 -36 28 4 27 1 43 -12 60 -17 20 -20 21 -38 8
-17 -12 -19 -24 -17 -78 2 -35 -2 -84 -8 -108 -7 -25 -15 -74 -20 -109 -7 -62
-21 -84 -45 -74 -14 5 -19 160 -5 168 5 3 14 21 20 40 10 29 9 42 -7 75 -11
24 -25 40 -35 40 -19 0 -21 -6 -18 -55 1 -23 -8 -40 -36 -69 -20 -21 -40 -52
-43 -70 -5 -24 -14 -33 -40 -42 -31 -10 -34 -15 -38 -57 -3 -42 -1 -47 17 -47
17 0 21 -5 18 -27 -4 -37 -31 -41 -47 -7 -9 20 -15 24 -23 16 -9 -9 -16 -8
-30 5 -14 13 -21 14 -30 5 -19 -19 -30 -14 -26 11 2 15 13 25 36 32 35 10 41
25 17 45 -10 9 -22 10 -35 4 -19 -9 -144 -171 -163 -211 -5 -13 -18 -25 -28
-28 -21 -7 -105 -85 -111 -104 -3 -11 -8 -12 -26 -2 -17 9 -26 9 -42 -1 -17
-11 -22 -10 -30 2 -8 12 -3 16 20 18 15 2 33 9 38 15 12 16 23 137 12 137 -11
0 -50 -54 -50 -69 0 -6 -9 -11 -19 -11 -11 0 -22 -4 -25 -9 -4 -5 -24 -12 -46
-16 -24 -4 -46 -15 -55 -28 -23 -32 -31 -11 -10 26 24 42 55 73 82 81 11 4 28
22 37 41 19 39 42 50 80 36 34 -14 55 -5 62 28 14 61 15 62 43 56 36 -8 60 13
63 55 4 42 -23 53 -53 21 -11 -12 -24 -21 -30 -21 -5 0 -21 -12 -34 -26 -24
-26 -26 -26 -50 -10 -29 19 -33 44 -7 52 44 15 83 40 88 59 12 43 30 72 76
121 63 65 73 111 33 142 -21 17 -26 28 -22 49 3 15 0 51 -6 80 -12 56 -26 66
-58 37 -25 -23 -39 -9 -39 39 0 46 -5 57 -35 73 -12 7 -21 24 -23 43 -3 25 0
31 16 31 11 0 25 -7 32 -15 17 -21 33 -19 59 9 22 23 22 30 19 180 -2 86 -6
156 -9 156 -11 0 -49 -47 -49 -61 -1 -17 -97 -79 -123 -79 -29 0 -33 30 -6 51
21 16 23 21 12 51 -22 64 -26 147 -9 173 9 13 16 34 16 45 0 12 9 24 23 29 13
5 29 16 36 25 18 21 60 20 83 -1 19 -17 21 -17 50 0 16 9 38 17 48 17 30 0 64
45 83 110 10 33 23 60 28 60 14 0 29 -46 29 -90 l0 -38 40 2 c26 1 45 9 56 22
11 13 17 15 20 7 10 -22 23 -14 39 23 11 27 19 34 33 30 24 -8 71 81 48 90 -8
3 -24 0 -36 -6 -31 -17 -36 -5 -19 43 11 29 23 43 40 47 26 6 26 8 14 58 -8
35 -35 44 -35 11 0 -19 -34 -58 -52 -59 -13 0 -20 100 -8 115 6 8 9 19 5 25
-10 17 -44 11 -55 -10 -6 -11 -19 -20 -30 -20 -25 0 -40 -29 -40 -74 0 -20 -4
-36 -10 -36 -5 0 -10 10 -10 23 0 42 -35 60 -64 32 -13 -13 -15 -13 -21 5 -10
33 -44 25 -60 -14 -19 -46 -33 -53 -52 -27 -12 17 -18 20 -29 10 -8 -6 -14
-17 -14 -24 0 -7 -7 -15 -15 -19 -8 -3 -15 -12 -15 -21 0 -8 7 -15 15 -15 8 0
15 9 15 20 0 11 6 20 14 20 24 0 28 -18 8 -32 -10 -7 -22 -25 -26 -40 -7 -30
-151 -188 -171 -188 -7 0 -15 7 -19 15 -10 28 -36 17 -36 -16 0 -24 -4 -30
-17 -27 -26 5 -28 44 -4 60 13 8 21 23 21 40 0 39 19 74 46 87 17 8 24 19 24
40 0 16 6 34 14 40 12 10 15 7 18 -16 4 -25 5 -26 13 -8 4 11 17 27 28 36 11
9 21 27 22 41 2 14 8 35 14 46 23 42 15 49 -50 45 -34 -2 -66 0 -73 5 -15 13
-81 24 -89 15 -4 -3 2 -17 14 -29 28 -30 21 -57 -16 -64 -17 -4 -40 -12 -53
-19 -29 -16 -52 0 -52 36 0 21 4 24 22 20 25 -7 58 8 58 27 0 30 -64 22 -76
-9 -4 -10 -13 -13 -25 -10 -10 3 -32 -1 -48 -9 -48 -25 -113 -21 -141 9 -19
20 -30 24 -51 20 -15 -4 -30 -1 -34 4 -15 26 -27 9 -21 -29 7 -43 -9 -55 -34
-25 -18 22 -56 18 -73 -8 -24 -37 -147 -114 -194 -122 -24 -4 -45 -11 -49 -16
-3 -5 -22 -9 -42 -9 -42 0 -73 -16 -56 -27 6 -5 27 -18 47 -31 42 -27 46 -41
17 -67 -19 -17 -22 -17 -63 -1 -23 9 -50 16 -58 16 -17 0 -119 -95 -119 -110
0 -15 -17 -12 -24 5 -3 8 1 27 10 42 8 16 19 40 24 56 7 18 17 27 32 27 32 1
65 57 70 117 3 45 2 48 -23 51 -26 3 -26 4 -16 52 7 34 15 51 28 55 14 5 19
16 19 42 0 46 -21 39 -36 -12 -6 -21 -16 -41 -22 -43 -7 -2 -15 -21 -18 -42
l-6 -39 -62 -8 c-60 -8 -61 -9 -64 -40 -4 -38 -19 -44 -24 -10 -2 14 -10 22
-23 22 -15 0 -21 -8 -23 -32 -2 -20 -11 -37 -23 -43 -10 -6 -26 -26 -34 -45
-7 -19 -18 -35 -24 -35 -16 0 -22 36 -10 63 14 31 6 59 -15 51 -10 -4 -16 -22
-18 -51 -2 -32 -9 -49 -22 -57 -36 -22 -106 -101 -106 -122 0 -12 -7 -25 -16
-28 -22 -8 -13 -41 11 -41 16 0 22 -10 29 -48 7 -36 6 -51 -4 -60 -9 -8 -14
-9 -17 -1 -2 6 -10 20 -18 30 -15 18 -16 18 -34 -3 -11 -13 -24 -23 -29 -23
-22 0 -35 -30 -24 -55 10 -21 7 -27 -24 -54 -19 -17 -38 -31 -42 -32 -4 0 -17
-2 -29 -5 -24 -4 -33 19 -13 31 6 3 10 14 10 24 0 10 6 24 14 30 7 6 16 40 19
79 5 66 46 162 68 162 5 0 9 5 9 10 0 17 -26 11 -46 -11 -22 -24 -86 -59 -109
-59 -23 0 -31 -31 -12 -42 19 -10 23 -43 6 -54 -6 -3 -15 0 -20 7 -7 11 -12
12 -26 1 -10 -6 -28 -16 -41 -22 -20 -8 -42 -45 -42 -70 0 -4 9 -6 20 -3 11 3
31 -2 45 -11 20 -13 23 -22 18 -46 -4 -24 -2 -30 11 -30 9 0 21 -11 26 -25 13
-33 1 -142 -16 -156 -8 -6 -14 -17 -14 -25 0 -7 -13 -36 -30 -64 -32 -55 -41
-91 -16 -71 7 6 21 9 30 5 9 -3 23 -1 32 6 22 19 39 -1 25 -29 -7 -12 -13 -81
-14 -157 -2 -79 -8 -138 -14 -142 -20 -13 -21 -97 -2 -138 10 -22 18 -51 19
-66 0 -37 10 -58 26 -58 8 0 14 -9 14 -20 0 -13 -7 -20 -20 -20 -25 0 -34 -35
-26 -103 5 -42 3 -57 -14 -82 -11 -16 -20 -40 -20 -53 0 -14 -9 -27 -25 -34
-24 -11 -35 -38 -16 -38 20 0 21 -41 1 -84 -24 -54 -26 -103 -3 -128 15 -17
15 -21 -7 -65 -22 -44 -22 -51 -11 -106 10 -50 10 -62 -2 -76 -9 -9 -17 -41
-20 -71 -7 -73 -22 -139 -36 -153 -6 -6 -11 -23 -11 -37 0 -14 -6 -32 -12 -38
-12 -12 -31 -74 -44 -142 -4 -23 -4 -24 8 -6 7 11 23 29 35 41 12 11 25 34 29
49 4 17 20 36 41 49 28 16 34 25 30 44 -4 22 -2 24 22 18 14 -4 28 -9 30 -11
7 -7 -28 -63 -71 -115 -21 -26 -38 -51 -38 -56 0 -5 -18 -33 -40 -62 -28 -38
-38 -57 -30 -65 5 -5 10 -18 10 -28 0 -22 -28 -24 -56 -3 -27 18 -35 11 -27
-26 5 -28 0 -37 -67 -117 -11 -13 -20 -29 -20 -34 0 -18 -68 -155 -80 -163 -6
-4 -16 -18 -21 -32 -8 -21 -6 -30 11 -45 18 -17 19 -22 8 -35 -11 -14 -14 -13
-22 11 -12 33 -26 29 -48 -13 -9 -18 -26 -42 -37 -52 -12 -11 -21 -22 -21 -24
0 -12 49 -28 78 -26 30 1 33 -1 30 -21 -3 -22 -5 -23 -98 -19 -100 4 -165 24
-165 51 0 10 13 16 43 18 37 3 42 6 42 28 0 13 15 41 33 61 47 55 127 160 127
168 0 4 18 44 39 88 78 162 90 195 84 231 -4 25 -1 37 13 47 47 35 84 119 52
119 -22 0 -34 -14 -44 -50 -11 -38 -31 -45 -48 -17 -9 15 -6 22 15 40 14 12
29 30 32 40 4 9 18 22 32 27 27 10 31 20 15 36 -11 11 12 68 31 79 12 8 12 45
0 45 -5 0 -13 -9 -16 -20 -7 -21 -30 -27 -40 -10 -10 16 -23 12 -30 -11 -4
-11 -20 -33 -36 -50 -16 -16 -29 -38 -29 -48 0 -10 -11 -26 -25 -35 -13 -9
-29 -32 -34 -52 -12 -42 -51 -104 -97 -154 -18 -19 -44 -61 -59 -93 -14 -32
-32 -60 -40 -63 -8 -3 -17 -16 -21 -27 -3 -12 -18 -38 -33 -57 -41 -54 -69
-98 -111 -176 -52 -97 -95 -111 -209 -70 -40 14 -87 26 -105 26 -18 0 -41 6
-51 14 -18 13 -17 16 17 67 49 76 49 75 42 93 -4 10 -18 16 -35 16 -16 0 -54
14 -84 31 -64 36 -110 37 -110 2 0 -13 -6 -28 -12 -34 -9 -9 -8 -17 4 -35 18
-28 12 -48 -17 -64 -17 -9 -22 -7 -29 12 -6 15 -4 34 5 55 11 29 11 34 -5 42
-22 12 -31 5 -61 -43 -20 -33 -22 -43 -12 -70 8 -22 9 -42 2 -66 -6 -22 -6
-38 0 -44 14 -14 22 -2 25 34 3 38 18 55 40 46 13 -4 16 -14 11 -34 -20 -95
-20 -96 -2 -89 10 4 21 7 26 7 5 0 14 16 20 36 13 39 47 45 43 7 -3 -23 -73
-133 -86 -133 -4 0 -13 12 -19 26 -8 18 -17 24 -31 20 -13 -3 -24 4 -35 25
-15 27 -21 29 -60 27 -45 -3 -47 -5 -84 -80 -4 -10 -8 -38 -8 -62 0 -28 -6
-51 -16 -61 -9 -8 -26 -44 -39 -78 -12 -34 -37 -92 -54 -129 -17 -36 -31 -79
-31 -94 0 -15 -7 -35 -16 -45 -17 -19 -11 -39 12 -39 16 0 18 -28 4 -66 -7
-16 -7 -31 -1 -38 5 -6 9 -44 9 -84 0 -50 5 -81 16 -97 21 -32 21 -56 0 -48
-15 5 -47 -21 -142 -117 -53 -54 -64 -76 -71 -138 -6 -56 -7 -57 -36 -54 -24
2 -43 -9 -100 -59 -38 -34 -79 -66 -90 -71 -11 -5 -33 -27 -50 -49 -35 -45
-82 -76 -97 -61 -12 12 15 80 35 88 8 3 20 24 27 47 20 66 32 87 63 105 21 13
27 22 22 39 -3 12 0 25 8 30 28 18 48 64 42 95 -6 27 -5 29 14 23 29 -9 59 2
72 27 16 30 -4 47 -29 25 -24 -22 -32 -21 -32 3 0 23 -15 27 -24 5 -3 -9 -18
-15 -36 -15 -23 0 -33 6 -40 25 -11 29 -14 30 -35 9 -9 -10 -13 -25 -10 -38 6
-21 6 -21 -9 -2 -30 37 -16 106 20 106 13 0 28 9 34 20 6 12 21 20 36 20 16 0
24 5 22 13 -5 14 -78 23 -78 8 0 -9 -28 -28 -77 -50 -13 -6 -23 -17 -23 -25 0
-7 -7 -19 -16 -26 -12 -11 -18 -11 -30 2 -19 19 -31 88 -15 88 6 0 11 -6 11
-14 0 -26 23 -30 42 -7 11 15 16 31 12 47 -9 35 2 59 20 44 11 -8 20 -8 35 -1
27 15 35 45 21 85 -6 19 -10 47 -8 63 3 24 0 28 -21 25 -39 -4 -79 46 -65 83
9 22 34 18 34 -4 0 -11 9 -26 21 -34 19 -14 25 -13 62 11 23 15 51 32 61 38
11 6 23 23 27 38 8 28 5 28 -47 9 -6 -2 -17 3 -24 12 -19 23 -40 18 -40 -10 0
-14 -7 -28 -15 -31 -19 -8 -65 22 -65 41 0 7 -9 20 -21 28 -13 9 -16 17 -10
22 16 9 14 55 -2 55 -30 0 -50 -26 -45 -58 3 -19 0 -32 -6 -32 -6 0 -21 -3
-34 -6 -22 -6 -23 -5 -17 28 5 25 2 38 -9 47 -13 11 -17 9 -26 -14 -5 -14 -10
-34 -10 -43 0 -9 -29 -45 -64 -79 -49 -47 -73 -63 -102 -68 -76 -12 -84 -16
-99 -45 -8 -16 -29 -37 -46 -45 -16 -9 -34 -27 -39 -41 -6 -16 -20 -27 -40
-31 -36 -7 -80 -55 -80 -88 0 -13 -7 -36 -15 -52 -8 -15 -22 -45 -31 -65 -16
-36 -40 -55 -27 -22 6 17 -20 44 -43 44 -7 0 -35 -24 -63 -52 -48 -49 -51 -56
-46 -90 5 -35 3 -37 -30 -48 -42 -14 -77 -10 -83 9 -4 11 2 13 26 8 38 -8 46
3 43 59 -1 35 5 52 31 88 18 24 44 49 58 55 42 17 66 45 95 107 15 32 37 69
48 81 10 12 24 43 29 70 16 78 16 88 -7 84 -48 -9 -50 -7 -47 28 2 19 10 44
18 56 13 19 12 24 -6 40 -11 10 -20 23 -20 30 0 7 -9 20 -20 30 -19 17 -29 75
-12 75 4 0 19 -14 34 -32 l26 -33 24 23 c14 12 32 22 41 22 21 0 22 19 3 46
-14 20 -27 70 -48 189 -17 97 -16 100 15 103 36 4 43 -16 23 -75 -23 -67 -21
-90 9 -97 14 -4 25 -13 25 -20 0 -8 12 -32 26 -55 l27 -40 29 32 c28 29 31 30
43 13 21 -27 -3 -79 -34 -74 -11 2 -17 -7 -21 -31 -5 -33 -15 -43 -53 -55 -13
-4 -16 -12 -11 -30 5 -21 2 -25 -22 -28 -33 -4 -39 -17 -19 -43 15 -19 15 -19
29 -2 9 12 21 17 34 13 15 -5 22 2 35 31 8 21 18 50 21 65 5 20 15 30 39 36
25 6 33 15 37 38 4 21 12 30 28 32 14 2 20 8 15 15 -4 7 -10 39 -13 72 -6 68
-17 76 -34 26 -15 -47 -29 -48 -61 -7 -22 28 -32 35 -51 30 -12 -3 -28 -3 -33
1 -19 11 7 45 34 45 28 0 37 22 27 70 -6 26 -19 42 -51 64 -31 21 -40 31 -32
39 9 9 17 8 31 -1 15 -9 26 -9 40 -2 15 8 24 4 49 -26 37 -45 64 -41 59 8 -3
29 -7 33 -45 41 -56 11 -61 31 -18 74 19 19 35 38 35 43 0 18 42 100 51 100
29 0 32 -93 3 -104 -9 -4 -14 -22 -14 -55 0 -45 3 -51 24 -57 14 -3 30 -3 35
1 14 8 14 52 1 60 -6 3 -10 14 -10 24 0 14 7 16 35 13 33 -4 35 -6 35 -42 0
-40 20 -70 46 -70 23 0 16 35 -13 60 l-27 23 22 15 c31 20 29 46 -2 38 -20 -5
-26 -1 -32 16 -3 12 -13 28 -21 36 -16 16 -14 43 3 49 6 2 14 -9 17 -24 5 -19
17 -33 42 -44 20 -10 38 -13 41 -7 3 5 5 35 4 66 -1 31 -2 61 -1 66 2 16 31
-16 31 -35 0 -10 9 -23 19 -28 22 -12 35 -1 45 39 3 14 10 32 16 40 9 13 13
11 30 -10 l20 -25 0 31 c0 17 -7 37 -15 44 -8 7 -15 19 -15 27 0 10 -6 13 -16
9 -55 -21 -63 -19 -69 17 -14 72 44 131 66 68 13 -36 19 -38 49 -13 l23 18
-27 27 c-34 34 -33 45 9 87 37 36 43 55 21 63 -16 6 -46 63 -46 86 1 9 11 29
24 45 17 21 29 26 44 22 15 -5 24 -1 32 14 16 30 5 52 -25 48 -28 -4 -35 16
-6 20 13 2 22 15 28 40 5 23 15 38 27 40 10 2 31 18 47 35 25 28 28 40 29 93
0 55 2 62 25 72 34 16 31 17 44 -19 8 -24 7 -39 -4 -66 -20 -47 -19 -67 1 -59
9 4 22 2 29 -4 22 -18 28 7 15 60 -11 45 -10 51 11 79 13 17 29 31 36 31 22 0
27 29 8 50 -15 17 -16 24 -7 46 16 33 15 34 -8 34 -13 0 -28 -12 -38 -30 -9
-16 -25 -30 -34 -30 -26 0 -24 56 2 70 47 25 -7 99 -72 97 -21 0 -40 2 -43 4
-3 3 2 23 11 44 19 45 10 55 -49 55 -68 0 -37 24 46 36 83 12 121 34 111 66
-4 13 2 21 20 30 20 9 26 18 26 45 0 30 -3 33 -30 33 -33 0 -50 -22 -50 -68 0
-26 -4 -31 -37 -37 -21 -4 -54 -16 -74 -27 -30 -17 -44 -19 -75 -11 -32 7 -40
13 -42 36 -3 22 5 36 34 62 l38 35 -23 31 c-17 23 -22 41 -19 70 2 24 -1 39
-8 39 -19 0 -42 -33 -46 -65 -2 -19 -9 -30 -18 -30 -12 0 -14 11 -12 50 1 28
-2 57 -8 65 -8 13 -12 12 -29 -5 -13 -14 -20 -38 -23 -82 -4 -58 -3 -62 19
-68 25 -6 28 -17 13 -46 -15 -28 -27 -23 -41 16 -7 19 -19 35 -26 35 -7 0 -22
14 -32 31 -12 19 -21 26 -26 19 -9 -14 3 -63 18 -72 6 -4 8 -11 3 -15 -5 -4
-11 -2 -13 5 -6 17 -48 15 -63 -3 -18 -22 -33 -14 -36 21 -13 144 -19 165 -39
158 -11 -5 -13 -15 -9 -45 8 -46 -11 -74 -56 -84 -45 -10 -57 -31 -33 -58 16
-17 21 -36 21 -82 0 -77 -9 -90 -51 -64 -18 10 -40 19 -50 19 -26 0 -40 47
-32 105 14 102 13 144 -1 156 -17 14 -30 4 -36 -26 -2 -11 -11 -21 -19 -23
-13 -2 -18 8 -24 44 -6 40 -4 48 14 61 13 9 21 25 21 44 0 39 -4 38 -88 -6
-18 -9 -36 -14 -39 -11 -15 14 -5 68 15 87 23 20 30 63 12 74 -13 8 -61 -18
-101 -55 -24 -21 -44 -30 -68 -30 -22 0 -43 -8 -58 -21 -20 -20 -23 -20 -29
-5 -4 10 -18 16 -40 16 -42 0 -46 26 -9 66 14 15 25 31 25 35 0 17 -55 9 -90
-12 -19 -12 -36 -17 -37 -12 -2 6 -10 19 -18 29 -14 18 -16 18 -36 -8 -23 -31
-41 -35 -59 -13 -21 25 -76 19 -98 -12 -18 -24 -22 -26 -49 -14 -16 6 -46 11
-66 9 -20 -1 -42 3 -49 10 -15 15 -70 16 -86 0 -9 -9 -8 -16 5 -30 12 -13 13
-22 6 -29 -14 -14 -33 -3 -33 17 0 29 -126 0 -167 -38 -29 -27 -78 -17 -87 18
-4 15 -14 24 -26 24 -21 0 -50 -35 -50 -62 0 -10 -10 -23 -22 -27 -24 -10 -82
-60 -89 -77 -2 -5 -20 -17 -40 -26 -25 -11 -48 -34 -70 -72 -39 -63 -55 -73
-79 -51 -16 14 -18 14 -24 0 -3 -9 -6 -24 -6 -32 0 -9 -12 -41 -27 -71 -23
-47 -34 -58 -79 -79 -35 -16 -55 -32 -61 -49 -11 -32 -105 -88 -122 -71 -6 6
-11 17 -11 24 0 27 -47 12 -85 -27 -21 -22 -45 -40 -52 -40 -22 0 -26 28 -9
55 20 30 21 55 1 55 -27 0 -65 -23 -65 -39 0 -19 -27 -61 -39 -61 -4 0 -13 11
-19 25 -17 37 -32 30 -32 -13 0 -29 -7 -45 -28 -65 -25 -24 -35 -27 -68 -22
-32 5 -45 2 -73 -19 -19 -14 -39 -26 -43 -26 -16 0 -8 48 13 74 22 28 39 32
67 15 12 -8 27 -6 54 5 21 9 38 19 38 22 0 9 -78 84 -87 84 -4 0 -17 -9 -29
-21 -18 -17 -34 -20 -102 -20 -76 0 -83 -2 -102 -26 -16 -20 -26 -24 -48 -20
-18 4 -37 0 -49 -8 -18 -12 -25 -12 -59 5 -49 25 -74 25 -81 0 -6 -23 -28 -27
-37 -5 -8 22 -20 19 -56 -15 -30 -28 -32 -34 -27 -77 3 -31 0 -58 -11 -82 -22
-48 -22 -48 -33 -28 -13 22 -30 22 -62 -3 -24 -19 -26 -19 -42 -3 -14 14 -18
14 -26 2 -5 -8 -9 -17 -9 -21 0 -4 -16 -14 -36 -23 -20 -8 -49 -26 -66 -40
-16 -14 -36 -25 -44 -25 -20 0 -18 44 5 81 26 42 17 71 -18 63 -14 -4 -32 -11
-39 -17 -23 -18 -24 1 -1 32 25 35 31 36 59 18 27 -16 42 5 34 48 -4 22 1 38
16 58 12 15 23 41 24 56 2 27 0 28 -26 20 -15 -4 -41 -17 -57 -28 -16 -12 -41
-21 -55 -21 -31 0 -33 -13 -7 -47 26 -32 17 -51 -26 -59 -43 -8 -98 15 -108
45 -8 26 -16 26 -48 1 -14 -11 -33 -20 -44 -20 -29 0 -47 -16 -39 -35 4 -11 0
-25 -10 -36 -23 -26 -44 -24 -41 2 4 39 -20 31 -47 -16 -21 -35 -26 -52 -20
-80 5 -28 3 -35 -9 -35 -9 0 -17 10 -19 22 -2 12 -8 23 -15 25 -17 6 -83 -56
-83 -78 0 -21 29 -26 61 -9 30 17 25 -19 -9 -60 -35 -41 -62 -36 -62 10 0 23
-4 30 -19 30 -11 0 -23 5 -26 10 -10 16 -42 12 -49 -6 -3 -9 -6 -30 -6 -48 0
-18 -5 -37 -11 -43 -6 -6 -14 -26 -18 -45 -9 -42 -35 -44 -39 -3 -5 43 -15 49
-51 30 -17 -8 -37 -15 -44 -14 -32 4 -39 -1 -33 -26 5 -21 0 -28 -34 -50 -22
-14 -40 -29 -40 -34 0 -16 -80 -105 -102 -114 -37 -13 -44 9 -14 50 51 73 71
98 94 121 28 28 28 48 0 63 -12 6 -32 24 -46 40 -14 17 -34 29 -48 29 -13 0
-28 9 -34 20 -18 33 -38 24 -42 -17 -2 -30 -8 -38 -28 -43 -25 -6 -25 -6 -31
-150 -4 -113 -2 -147 8 -156 16 -14 17 -68 1 -97 -10 -17 -13 -459 -14 -2007
-1 -1092 -2 -1994 -2 -2005 0 -11 1 -46 1 -78 0 -38 -4 -61 -12 -67 -11 -6
-10 -12 3 -31 13 -21 15 -83 12 -504 -1 -264 1 -491 4 -505 5 -22 11 -24 43
-22 41 4 77 -5 77 -18 0 -5 -11 -17 -24 -25 -21 -14 -26 -14 -54 2 -17 10 -34
14 -38 10 -13 -12 -12 -2666 0 -2676 6 -4 904 -9 1995 -10 1429 -2 1989 -6
2002 -14 13 -8 21 -8 31 1 22 18 5693 28 5714 11 13 -10 17 -10 23 0 7 10 183
12 872 11 475 0 873 -1 884 0 11 0 323 2 694 5 370 2 675 6 677 7 1 2 5 460 8
1018 2 558 5 1023 5 1033 1 9 0 25 -1 35 0 9 2 287 6 617 9 728 11 1029 10
1635 -4 3237 -5 4789 -5 5350 1 466 -2 683 -10 702 -8 19 -8 32 0 46 16 30 3
55 -23 47 -11 -4 -32 -9 -46 -12 -14 -3 -33 -12 -42 -21 -20 -17 -48 -10 -48
13 0 9 9 15 25 15 19 0 26 7 33 33 9 33 27 39 78 22 29 -9 37 16 21 63 -8 23
-10 53 -6 77 6 32 12 424 10 561 -1 17 -10 43 -22 58 -17 22 -24 25 -36 14
-11 -9 -13 -24 -9 -60 9 -66 -10 -137 -41 -151 -19 -8 -23 -17 -21 -41 2 -23
8 -31 21 -30 18 2 17 -19 -4 -56 -6 -12 -9 -12 -15 5 -4 11 -15 29 -24 40 -29
33 -33 72 -10 85 11 6 20 19 20 30 0 11 9 24 20 30 15 8 20 21 20 50 0 32 -6
43 -29 61 -16 12 -32 32 -35 45 -4 13 -16 28 -27 35 -18 9 -26 5 -60 -28 -45
-44 -47 -57 -15 -97 20 -24 29 -28 54 -23 48 10 59 -13 33 -68 -12 -25 -23
-45 -26 -45 -2 0 -13 10 -24 22 -19 20 -21 20 -27 3 -4 -10 -2 -26 4 -36 29
-47 4 -79 -62 -79 -30 0 -37 -5 -53 -37 -19 -41 -60 -61 -49 -25 4 11 2 32 -4
48 -9 22 -8 29 3 36 8 4 20 21 27 38 11 26 10 33 -5 50 -13 14 -16 28 -11 55
6 29 12 37 37 42 29 5 30 8 44 75 6 34 -16 29 -30 -6 -15 -36 -77 -86 -107
-86 -9 0 -20 -4 -23 -10 -3 -5 -20 -10 -38 -10 -17 0 -48 -12 -69 -27 -29 -19
-42 -23 -50 -15 -9 9 -8 18 0 37 18 40 14 59 -15 77 -26 16 -29 15 -84 -12
-31 -16 -59 -36 -62 -45 -10 -24 -27 -18 -27 10 0 14 -8 29 -21 35 -21 12 -37
4 -79 -40 -53 -56 -141 -120 -163 -120 -18 0 -35 -11 -54 -35 -29 -36 -53 -46
-53 -21 0 8 7 21 15 30 18 18 19 48 3 64 -9 9 -3 20 25 47 20 20 37 40 37 44
0 5 24 16 54 25 47 15 55 22 69 56 12 32 13 41 2 50 -7 6 -16 22 -19 35 -7 28
-27 32 -46 10z m-85 -114 c4 -13 -4 -35 -21 -60 -28 -42 -38 -47 -64 -31 -12
8 -13 13 -2 30 6 11 12 30 12 43 0 31 7 37 41 37 19 0 30 -6 34 -19z m419
-110 c10 -15 -12 -61 -29 -61 -18 0 -20 41 -3 58 14 14 25 15 32 3z m-236 -58
c-5 -25 -28 -28 -28 -4 0 12 6 21 16 21 9 0 14 -7 12 -17z m292 -24 c0 -14 -7
-19 -25 -19 -29 0 -31 7 -9 31 19 21 34 16 34 -12z m-230 -14 c0 -8 -7 -15
-15 -15 -16 0 -20 12 -8 23 11 12 23 8 23 -8z m293 -20 c4 -8 2 -17 -4 -21
-12 -7 -41 15 -33 27 8 14 31 11 37 -6z m151 -20 c-8 -19 -28 -19 -43 -2 -8
10 -7 17 1 25 15 15 49 -3 42 -23z m-586 3 c15 -15 16 -48 2 -48 -5 0 -10 8
-10 18 0 10 -5 23 -12 30 -7 7 -8 12 -2 12 5 0 15 -5 22 -12z m850 -38 c12
-16 33 -32 46 -36 27 -6 52 -46 41 -65 -6 -9 -11 -6 -16 9 -10 25 -44 29 -53
6 -11 -27 13 -57 40 -50 16 4 24 2 24 -6 -1 -24 -38 -58 -64 -58 -21 0 -26 5
-26 24 0 13 -9 30 -20 37 -11 8 -20 25 -20 39 -1 43 12 130 19 130 4 0 17 -13
29 -30z m-518 -80 c0 -5 -4 -10 -10 -10 -5 0 -10 5 -10 10 0 6 5 10 10 10 6 0
10 -4 10 -10z m685 -31 c0 -15 -7 -25 -17 -27 -13 -3 -18 3 -18 21 0 13 3 27
7 31 13 12 28 -1 28 -25z m-521 15 c23 -9 19 -31 -6 -38 -27 -6 -43 7 -35 28
7 17 16 19 41 10z m-534 -80 c0 -15 -10 -17 -34 -8 -16 6 -22 45 -9 58 9 9 43
-31 43 -50z m1034 10 c8 -21 -11 -44 -35 -44 -15 0 -17 -4 -10 -22 10 -29 4
-46 -28 -79 -14 -15 -32 -34 -39 -43 -19 -23 -54 -16 -69 14 -7 14 -21 32 -32
41 -17 14 -18 19 -6 36 13 18 49 23 98 14 14 -2 7 -21 -8 -21 -16 0 -21 -15
-7 -23 11 -7 62 40 62 57 0 8 5 18 10 21 6 3 10 16 10 29 0 12 3 26 7 29 12
13 41 7 47 -9z m-3535 -43 c8 -14 7 -22 -4 -31 -17 -14 -35 -5 -35 19 0 34 24
42 39 12z m2241 -1 c0 -5 -5 -10 -11 -10 -5 0 -7 5 -4 10 3 6 8 10 11 10 2 0
4 -4 4 -10z m-2667 -6 c9 -10 -4 -34 -19 -34 -8 0 -14 6 -14 13 0 22 19 35 33
21z m3395 -28 c3 -12 -1 -17 -10 -14 -7 3 -15 13 -16 22 -3 12 1 17 10 14 7
-3 15 -13 16 -22z m-642 2 c4 -6 11 -28 15 -47 5 -20 11 -48 15 -63 5 -21 2
-29 -11 -34 -22 -9 -35 11 -35 53 0 22 -6 36 -20 43 -19 10 -27 40 -13 53 10
11 41 8 49 -5z m444 -20 c0 -14 -30 -48 -42 -48 -12 0 -10 34 4 48 15 15 38
16 38 0z m361 -31 c-8 -8 -11 -5 -11 9 0 27 14 41 18 19 2 -9 -1 -22 -7 -28z
m-91 19 c0 -8 -4 -17 -9 -21 -12 -7 -24 12 -16 25 9 15 25 12 25 -4z m-3175
-25 c8 -19 15 -21 43 -16 17 3 32 3 32 0 0 -15 -34 -55 -47 -55 -25 0 -73 43
-73 65 0 41 28 45 45 6z m3375 14 c0 -8 -4 -15 -10 -15 -5 0 -10 7 -10 15 0 8
5 15 10 15 6 0 10 -7 10 -15z m-3750 -10 c0 -8 -4 -15 -10 -15 -5 0 -10 7 -10
15 0 8 5 15 10 15 6 0 10 -7 10 -15z m-80 -30 c0 -9 -10 -15 -25 -15 -18 0
-25 5 -25 18 0 10 3 22 6 25 10 10 44 -12 44 -28z m410 -61 c0 -9 -4 -14 -8
-12 -4 2 -29 12 -55 23 -36 15 -47 25 -47 42 0 12 8 26 17 32 14 7 25 1 55
-30 21 -21 38 -46 38 -55z m-927 61 c36 -32 36 -65 1 -65 -18 0 -28 -6 -31
-20 -3 -12 -8 -19 -12 -17 -3 2 -23 11 -43 20 -21 10 -38 24 -38 32 0 18 7 18
49 4 40 -14 48 -7 27 23 -35 50 -2 66 47 23z m4377 -34 c0 -39 -13 -61 -25
-41 -8 13 5 80 16 80 5 0 9 -18 9 -39z m-3742 7 c6 -6 34 -11 63 -9 44 2 50 0
47 -16 -2 -12 -15 -20 -37 -23 -53 -8 -49 -26 6 -33 41 -5 52 -2 74 19 14 13
33 24 44 24 23 0 75 -57 75 -82 0 -25 11 -23 37 10 20 24 22 25 23 7 0 -11 -9
-37 -20 -58 -11 -20 -20 -45 -21 -54 0 -14 -2 -15 -6 -3 -3 8 -19 29 -35 46
-19 21 -29 40 -26 55 2 16 -3 25 -14 27 -13 3 -18 -3 -18 -21 0 -29 -33 -42
-51 -21 -19 23 -39 16 -55 -21 -17 -40 -35 -45 -56 -13 -13 20 -17 21 -32 9
-13 -11 -22 -11 -46 -1 -51 21 -29 65 27 54 17 -3 33 -2 37 4 3 5 -8 12 -24
16 -25 5 -30 10 -30 35 0 54 14 73 38 49z m692 -23 c0 -8 -4 -15 -10 -15 -5 0
-10 7 -10 15 0 8 5 15 10 15 6 0 10 -7 10 -15z m-1020 -50 c-7 -8 -16 -15 -21
-15 -14 0 -11 38 4 43 20 7 31 -11 17 -28z m-455 -16 c22 -6 48 -18 58 -27 16
-15 16 -17 -5 -39 -28 -30 -63 -31 -55 -2 12 45 -22 68 -43 29 -13 -24 -40
-27 -40 -4 0 23 19 54 33 54 7 0 30 -5 52 -11z m607 -24 c-12 -22 -27 -2 -18
22 5 12 10 13 17 6 7 -7 8 -17 1 -28z m3148 -50 c0 -8 -4 -15 -9 -15 -13 0
-22 16 -14 24 11 11 23 6 23 -9z m-3850 1 c0 -2 -7 -9 -15 -16 -12 -10 -15
-10 -15 4 0 9 7 16 15 16 8 0 15 -2 15 -4z m2874 -33 c4 -9 2 -21 -3 -26 -15
-15 -41 0 -41 23 0 25 35 28 44 3z m-2264 -18 c0 -16 -6 -25 -15 -25 -9 0 -15
9 -15 25 0 16 6 25 15 25 9 0 15 -9 15 -25z m70 15 c0 -5 -2 -10 -4 -10 -3 0
-8 5 -11 10 -3 6 -1 10 4 10 6 0 11 -4 11 -10z m2454 1 c7 -10 -22 -37 -30
-28 -9 8 3 37 15 37 5 0 12 -4 15 -9z m-2694 -53 c1 -44 -33 -25 -46 26 l-7
29 26 -19 c15 -10 27 -27 27 -36z m570 22 c0 -5 -2 -10 -4 -10 -3 0 -8 5 -11
10 -3 6 -1 10 4 10 6 0 11 -4 11 -10z m-1115 -61 c-12 -18 -45 11 -45 39 l1
27 24 -28 c14 -16 23 -33 20 -38z m3009 -1 c21 -14 65 -8 75 10 6 9 11 14 11
10 0 -4 -9 -23 -21 -42 -14 -24 -29 -36 -42 -36 -43 0 -66 -12 -77 -41 -7 -15
-21 -31 -31 -34 -10 -4 -19 -11 -19 -16 0 -5 -5 -9 -11 -9 -15 0 -1 80 19 103
8 9 19 17 24 17 5 0 20 7 34 16 19 13 22 20 13 30 -6 7 -7 19 -3 26 6 10 10 8
12 -7 3 -11 9 -23 16 -27z m-2514 -7 c0 -22 -19 -41 -42 -41 -22 0 -23 18 -3
47 17 25 45 21 45 -6z m135 9 c-3 -5 -12 -10 -20 -10 -7 0 -18 -13 -24 -30
-11 -32 -38 -40 -48 -14 -7 19 8 35 49 50 43 15 50 16 43 4z m-451 -16 c10
-26 7 -82 -5 -90 -21 -12 -32 14 -25 60 7 47 19 59 30 30z m836 5 c0 -6 -9
-22 -20 -36 -11 -14 -20 -32 -20 -39 0 -19 -16 -18 -24 2 -10 27 -7 54 8 54 7
0 19 7 26 15 15 18 30 20 30 4z m-600 -29 c11 -7 12 -15 5 -36 -6 -15 -15 -29
-22 -31 -16 -6 -35 34 -28 57 7 22 22 25 45 10z m832 -32 c-9 -9 -15 -9 -23
-1 -7 7 -9 20 -5 29 6 16 8 16 23 1 13 -13 15 -19 5 -29z m-577 -8 c8 -25 -10
-50 -36 -50 -28 0 -31 15 -8 44 25 31 36 33 44 6z m401 -15 c10 -26 0 -37 -20
-22 -11 8 -16 19 -12 25 10 16 26 15 32 -3z m-1216 -51 c0 -8 -4 -14 -9 -14
-11 0 -22 26 -14 34 9 9 23 -3 23 -20z m503 -4 c-3 -11 -9 -20 -14 -20 -10 0
-12 33 -3 43 12 12 22 -3 17 -23z m585 3 c-2 -10 -13 -19 -26 -21 -24 -4 -25
-2 -16 22 9 23 46 21 42 -1z m170 -1 c2 -7 -3 -12 -12 -12 -9 0 -16 7 -16 16
0 17 22 14 28 -4z m2948 4 c3 -8 0 -24 -6 -36 -14 -26 -53 -23 -58 4 -7 34 52
63 64 32z m-3495 -16 c13 -8 19 -21 19 -46 0 -34 -1 -35 -32 -32 -37 3 -48 31
-28 67 12 24 15 25 41 11z m424 -52 c-9 -39 -22 -58 -41 -58 -19 0 -18 24 1
40 8 7 15 21 15 31 0 11 7 19 16 19 12 0 14 -7 9 -32z m195 1 c0 -5 -7 -9 -15
-9 -15 0 -20 12 -9 23 8 8 24 -1 24 -14z m-882 -13 c3 -12 -1 -17 -10 -14 -7
3 -15 13 -16 22 -3 12 1 17 10 14 7 -3 15 -13 16 -22z m2840 -19 c2 -19 -1
-27 -12 -27 -18 0 -40 36 -31 51 13 19 40 4 43 -24z m-3488 2 c0 -4 -7 -6 -15
-3 -8 4 -15 10 -15 15 0 4 7 6 15 3 8 -4 15 -10 15 -15z m250 -50 c0 -35 -33
-57 -56 -38 -18 14 -18 21 1 66 15 35 16 35 35 18 11 -10 20 -31 20 -46z
m1450 46 c0 -13 -22 -30 -45 -35 -5 -1 -28 -12 -50 -25 -22 -13 -58 -29 -80
-36 -22 -7 -45 -17 -52 -22 -7 -5 -15 -3 -20 5 -4 8 -25 19 -45 25 -29 9 -41
8 -55 -3 -24 -18 -53 -18 -53 1 0 8 10 20 23 26 12 6 31 19 42 29 11 10 27 18
35 19 8 0 29 3 47 7 26 5 32 2 38 -15 7 -25 22 -27 44 -7 18 16 90 24 108 13
7 -5 17 1 23 13 12 23 40 27 40 5z m-738 -17 c-6 -6 -15 -8 -19 -4 -4 4 -1 11
7 16 19 12 27 3 12 -12z m218 -23 c0 -8 -6 -15 -14 -15 -17 0 -28 14 -19 24
12 12 33 6 33 -9z m2356 -16 c3 -6 0 -15 -7 -20 -13 -7 -28 5 -29 24 0 11 28
8 36 -4z m-1795 -42 c-8 -8 -11 -7 -11 4 0 20 13 34 18 19 3 -7 -1 -17 -7 -23z
m-1041 -18 c0 -16 -48 -59 -66 -59 -7 0 -14 7 -14 15 0 8 7 15 15 15 8 0 19 9
25 20 11 21 40 28 40 9z m975 1 c-3 -5 -10 -10 -16 -10 -5 0 -9 5 -9 10 0 6 7
10 16 10 8 0 12 -4 9 -10z m-748 -22 c18 -7 33 -19 33 -28 -1 -23 -46 -74 -59
-66 -14 9 -15 53 -1 61 13 8 13 25 1 25 -5 0 -18 -23 -29 -52 -24 -64 -47 -82
-68 -54 -8 11 -14 28 -14 37 0 25 46 77 73 82 12 2 24 5 26 6 3 0 20 -4 38
-11z m661 -22 c3 -13 -1 -17 -14 -14 -11 2 -20 11 -22 22 -3 13 1 17 14 14 11
-2 20 -11 22 -22z m370 -11 c4 -34 -23 -61 -44 -44 -10 8 -10 17 3 45 20 40
37 40 41 -1z m-1728 14 c0 -19 -41 -79 -50 -74 -10 6 -4 29 18 63 15 24 32 29
32 11z m3257 -6 c5 -13 -33 -37 -46 -28 -5 3 -7 14 -4 26 6 22 43 24 50 2z
m-2727 -2 c0 -17 -12 -41 -21 -41 -5 0 -9 11 -9 25 0 16 6 25 15 25 8 0 15 -4
15 -9z m760 -15 c0 -20 -27 -39 -46 -32 -15 6 -15 8 1 26 21 23 45 26 45 6z
m170 -26 c0 -5 -4 -10 -10 -10 -5 0 -10 5 -10 10 0 6 5 10 10 10 6 0 10 -4 10
-10z m-1570 -45 c0 -14 -4 -25 -10 -25 -5 0 -10 11 -10 25 0 14 5 25 10 25 6
0 10 -11 10 -25z m810 -37 c0 -10 -7 -18 -15 -18 -15 0 -21 40 -8 53 9 9 23
-13 23 -35z m-380 0 c0 -30 -1 -31 -16 -16 -9 9 -14 24 -11 32 11 27 27 17 27
-16z m-472 -72 c2 -9 -2 -24 -9 -32 -12 -14 -14 -14 -26 1 -9 13 -9 23 -2 37
12 22 32 19 37 -6z m2782 19 c0 -14 -45 -65 -57 -65 -18 0 -16 35 3 54 14 15
54 23 54 11z m-2570 -125 c0 -5 -4 -10 -10 -10 -5 0 -10 5 -10 10 0 6 5 10 10
10 6 0 10 -4 10 -10z m2555 -37 c37 -41 44 -70 20 -80 -9 -3 -22 -18 -31 -34
-8 -16 -21 -29 -29 -29 -19 0 -29 43 -16 68 16 31 13 52 -9 60 -19 7 -19 9 -4
30 21 30 28 28 69 -15z m228 11 c8 -9 -21 -64 -33 -64 -11 0 -14 53 -3 63 8 9
28 9 36 1z m-2799 -29 c30 -46 16 -74 -28 -53 -27 12 -43 48 -31 67 11 19 42
12 59 -14z m2646 -106 c0 -10 -4 -19 -9 -19 -12 0 -23 29 -15 41 8 14 24 0 24
-22z m-2552 -11 c2 -18 -5 -32 -25 -48 -28 -22 -28 -22 -31 -2 -4 27 26 84 41
79 7 -2 13 -15 15 -29z m1522 -13 c0 -8 -4 -15 -10 -15 -5 0 -10 7 -10 15 0 8
5 15 10 15 6 0 10 -7 10 -15z m1064 -89 c-8 -73 -11 -81 -30 -65 -9 7 -14 32
-14 68 0 62 14 88 37 69 10 -8 12 -26 7 -72z m-6851 -10 c0 -30 -4 -59 -7 -64
-19 -32 -116 -17 -116 17 0 10 13 30 30 46 l29 28 11 -27 c14 -37 34 -28 38
17 5 58 17 43 15 -17z m-123 19 c0 -15 -46 -32 -57 -22 -3 4 -3 13 0 22 8 20
57 20 57 0z m270 -6 c0 -5 -7 -9 -15 -9 -15 0 -20 12 -9 23 8 8 24 -1 24 -14z
m230 -4 c0 -14 -8 -29 -21 -35 -26 -15 -28 -12 -17 28 10 38 38 44 38 7z
m5346 1 c13 -55 -18 -87 -44 -45 -11 18 -12 26 -1 45 16 31 37 31 45 0z
m-1596 -6 c0 -11 -4 -20 -9 -20 -5 0 -7 9 -4 20 3 11 7 20 9 20 2 0 4 -9 4
-20z m3546 -12 c-4 -18 -13 -39 -20 -47 -12 -11 -16 -10 -25 7 -16 29 2 72 30
72 19 0 21 -4 15 -32z m-2028 5 c-32 -65 -47 -78 -63 -52 -5 7 -13 4 -26 -7
-17 -15 -19 -15 -25 0 -9 24 3 46 25 46 11 0 23 5 26 10 7 11 69 14 63 3z
m192 -38 c0 -39 -5 -51 -35 -80 -19 -19 -39 -35 -45 -35 -19 0 -10 51 17 98
44 77 63 82 63 17z m-5345 11 c16 -12 17 -18 8 -39 -14 -31 -58 -61 -74 -52
-15 10 -4 63 18 87 19 22 24 22 48 4z m3622 -18 c-3 -8 -6 -5 -6 6 -1 11 2 17
5 13 3 -3 4 -12 1 -19z m602 8 c11 -14 5 -46 -9 -46 -15 0 -32 30 -26 45 7 19
20 19 35 1z m-4857 -26 c5 0 8 -10 6 -22 -2 -14 -13 -24 -32 -29 -38 -11 -42
-6 -26 31 8 20 18 29 27 26 8 -4 19 -6 25 -6z m447 -24 c-13 -28 -39 -36 -39
-12 0 14 40 49 47 42 2 -2 -2 -15 -8 -30z m5151 -21 c0 -33 4 -45 15 -45 8 0
23 -9 32 -20 19 -21 48 -26 58 -10 3 6 15 10 26 10 16 0 19 -7 19 -41 0 -38
-2 -41 -22 -34 -13 4 -36 9 -53 12 -16 3 -35 12 -40 20 -9 12 -16 12 -38 2
-35 -16 -55 1 -64 53 -4 28 0 44 16 67 33 46 51 40 51 -14z m-5276 14 c-3 -5
-10 -7 -15 -3 -5 3 -7 10 -3 15 3 5 10 7 15 3 5 -3 7 -10 3 -15z m6570 -21 c7
-19 6 -31 -4 -43 -19 -23 -40 -1 -40 42 0 27 4 34 17 31 10 -2 22 -15 27 -30z
m-6182 -20 c-15 -15 -26 -4 -18 18 5 13 9 15 18 6 9 -9 9 -15 0 -24z m132 17
c-4 -8 -8 -15 -10 -15 -2 0 -4 7 -4 15 0 8 4 15 10 15 5 0 7 -7 4 -15z m3390
-53 c-24 -49 -31 -18 -8 35 13 28 18 33 21 20 3 -10 -3 -35 -13 -55z m-3714
38 c0 -11 -4 -20 -10 -20 -5 0 -10 9 -10 20 0 11 5 20 10 20 6 0 10 -9 10 -20z
m423 13 c3 -5 8 -29 11 -55 l7 -47 -36 -7 c-46 -8 -54 0 -32 37 9 17 17 39 17
48 0 27 22 42 33 24z m3431 -123 c-3 -30 -13 -66 -22 -80 l-16 -25 -8 50 c-4
30 -3 64 4 85 6 19 13 42 15 50 4 12 7 11 19 -5 11 -15 13 -34 8 -75z m1000
81 c3 -5 -1 -14 -8 -20 -16 -13 -32 2 -21 19 8 12 22 13 29 1z m-241 -33 c2
-7 0 -23 -6 -35 -7 -16 -6 -26 7 -38 19 -19 19 -17 6 -50 -8 -22 -13 -25 -24
-16 -8 7 -17 23 -20 36 -4 14 -11 25 -16 25 -16 0 -11 39 8 65 19 27 38 32 45
13z m-4444 -91 c1 -22 -21 -31 -54 -23 -37 9 -33 50 8 87 l32 30 7 -38 c4 -21
7 -46 7 -56z m6133 61 c-9 -9 -12 -7 -12 12 0 19 3 21 12 12 9 -9 9 -15 0 -24z
m-6797 1 c18 -19 18 -22 3 -47 -24 -39 -35 -38 -58 9 -18 34 -19 43 -8 50 22
14 44 10 63 -12z m150 -19 c-3 -5 -10 -10 -16 -10 -5 0 -9 5 -9 10 0 6 7 10
16 10 8 0 12 -4 9 -10z m1425 0 c0 -5 -7 -10 -16 -10 -8 0 -12 5 -9 10 3 6 10
10 16 10 5 0 9 -4 9 -10z m2600 -5 c0 -8 -7 -15 -15 -15 -16 0 -20 12 -8 23
11 12 23 8 23 -8z m-3807 -6 c27 1 38 -17 15 -23 -15 -4 -88 -27 -104 -33 -22
-8 -24 27 -3 48 15 15 27 19 42 14 12 -4 34 -6 50 -6z m5467 -13 c0 -16 -18
-31 -27 -22 -8 8 5 36 17 36 5 0 10 -6 10 -14z m-810 -46 c0 -30 -23 -56 -40
-45 -14 9 -13 72 3 78 22 8 37 -5 37 -33z m-4127 -49 c-1 -18 -11 -46 -22 -62
-12 -15 -21 -34 -21 -42 0 -8 -9 -22 -20 -32 -17 -15 -24 -16 -45 -7 -29 13
-33 32 -7 32 25 0 52 51 52 97 0 47 6 55 40 51 22 -3 25 -8 23 -37z m3228 6
c-8 -8 -11 -7 -11 4 0 9 3 19 7 23 4 4 9 2 11 -4 3 -7 -1 -17 -7 -23z m-3559
11 c3 -7 3 -19 1 -25 -7 -21 -132 -115 -143 -108 -29 18 9 90 44 81 25 -6 36
0 59 37 19 29 32 34 39 15z m5004 -12 c7 -29 -1 -46 -22 -46 -20 0 -28 24 -14
49 14 28 28 26 36 -3z m-4836 4 c0 -5 -4 -10 -10 -10 -5 0 -10 5 -10 10 0 6 5
10 10 10 6 0 10 -4 10 -10z m-110 -28 c0 -13 -12 -22 -22 -16 -10 6 -1 24 13
24 5 0 9 -4 9 -8z m3930 -35 c0 -8 -11 -24 -25 -37 -14 -13 -25 -31 -25 -40 0
-9 -11 -30 -25 -46 -29 -34 -31 -30 -9 21 33 81 84 142 84 102z m1750 -53 c0
-14 -12 -35 -30 -51 -17 -14 -30 -36 -30 -49 0 -85 -52 -66 -61 22 -5 42 7 54
52 54 24 0 39 5 40 13 1 6 2 17 4 22 1 6 3 14 3 18 4 18 22 -6 22 -29z m-5102
4 c-6 -16 -36 -34 -44 -26 -3 4 -4 14 -1 23 7 17 51 21 45 3z m2882 -5 c0 -10
-12 -26 -25 -36 -29 -21 -31 -17 -10 23 17 33 35 40 35 13z m-3963 -8 c5 -16
-22 -55 -39 -55 -9 0 -11 31 -2 54 8 20 33 21 41 1z m153 -15 c0 -5 -4 -10
-10 -10 -5 0 -10 5 -10 10 0 6 5 10 10 10 6 0 10 -4 10 -10z m1240 -20 c0 -5
-7 -10 -16 -10 -8 0 -12 5 -9 10 3 6 10 10 16 10 5 0 9 -4 9 -10z m139 -61
c17 -31 17 -36 2 -66 -9 -17 -26 -34 -38 -37 -12 -4 -25 -15 -28 -26 -7 -23
-35 -27 -35 -5 0 8 14 37 30 65 17 28 30 61 30 74 0 22 9 40 17 32 3 -2 13
-19 22 -37z m-1591 -16 c-15 -31 -41 -38 -46 -11 -4 22 37 63 50 50 7 -7 5
-19 -4 -39z m1012 19 c0 -31 -16 -52 -39 -52 -8 0 -25 -12 -37 -27 -14 -17
-26 -24 -37 -20 -21 8 -22 42 -1 59 8 7 29 25 45 41 40 36 69 36 69 -1z m4967
-36 c3 -77 6 -83 42 -91 28 -6 45 -35 21 -35 -5 0 -19 -9 -30 -20 -26 -26 -49
-25 -91 3 -29 20 -34 29 -33 61 2 40 1 40 -56 25 -9 -2 -16 4 -18 17 -6 40 84
106 138 101 23 -2 25 -6 27 -61z m97 48 c9 -23 -4 -64 -20 -64 -9 0 -14 12
-14 33 0 46 21 65 34 31z m-4346 -16 c18 -18 14 -45 -8 -51 -25 -6 -41 13 -33
41 6 24 23 28 41 10z m4009 -36 c10 -24 11 -38 4 -45 -14 -14 -14 -54 0 -62 6
-4 21 2 33 14 31 29 52 26 64 -9 9 -24 7 -33 -9 -54 -10 -13 -19 -29 -19 -34
0 -24 -21 -21 -30 3 -5 14 -18 28 -27 31 -10 3 -26 10 -35 15 -25 13 -25 13
-33 -28 -3 -21 -13 -48 -21 -61 -11 -17 -12 -27 -4 -42 15 -27 29 -25 73 11
46 38 49 20 5 -45 -36 -55 -67 -72 -85 -49 -16 20 -38 11 -55 -24 -19 -41 -48
-43 -48 -4 0 17 5 40 12 50 6 10 8 26 5 35 -7 18 -42 22 -52 6 -10 -16 -42
-12 -49 6 -8 21 15 48 60 69 19 9 34 22 34 30 0 10 10 15 30 15 30 0 31 1 24
35 -4 22 -2 35 4 35 20 0 42 32 42 62 0 34 36 92 52 82 5 -4 17 -22 25 -42z
m563 34 c0 -16 -18 -31 -27 -22 -8 8 5 36 17 36 5 0 10 -6 10 -14z m760 -6 c0
-12 -8 -33 -17 -48 -19 -30 -113 -122 -125 -122 -16 0 -8 29 10 34 9 4 38 40
64 81 47 76 68 92 68 55z m-817 -55 c-25 -52 -42 -44 -27 13 4 13 14 22 25 22
18 0 18 -2 2 -35z m-2183 12 c0 -19 -21 -37 -42 -37 -21 0 -24 20 -6 38 16 16
48 15 48 -1z m-3460 -27 c0 -11 -7 -20 -15 -20 -8 0 -15 9 -15 20 0 11 7 20
15 20 8 0 15 -9 15 -20z m850 -6 c0 -14 -4 -23 -10 -19 -5 3 -10 15 -10 26 0
10 5 19 10 19 6 0 10 -12 10 -26z m204 -8 c-6 -16 -8 -17 -16 -2 -11 19 0 42
13 29 6 -6 7 -18 3 -27z m-3341 -13 c3 -21 4 -56 4 -77 -2 -35 -6 -41 -31 -47
-16 -5 -33 -6 -37 -3 -12 7 -32 75 -24 82 4 4 10 1 12 -5 8 -22 25 -14 18 7
-6 20 27 80 44 80 5 0 11 -17 14 -37z m1855 4 c4 -30 -21 -48 -40 -29 -8 8 -8
18 0 38 15 31 36 27 40 -9z m5350 0 c2 -19 -1 -27 -13 -27 -19 0 -30 24 -21
46 9 23 31 11 34 -19z m90 -6 c3 -16 -1 -22 -10 -19 -7 3 -15 15 -16 27 -3 16
1 22 10 19 7 -3 15 -15 16 -27z m-4748 -21 c0 -5 -4 -10 -10 -10 -5 0 -10 5
-10 10 0 6 5 10 10 10 6 0 10 -4 10 -10z m880 -2 c0 -7 -5 -20 -10 -28 -12
-19 -35 2 -27 24 7 19 37 21 37 4z m3560 -3 c0 -8 -4 -15 -10 -15 -5 0 -10 7
-10 15 0 8 5 15 10 15 6 0 10 -7 10 -15z m-1160 -20 c0 -8 -9 -19 -20 -25 -17
-9 -20 -8 -20 8 0 10 3 22 7 25 12 12 33 7 33 -8z m-6760 -16 c0 -5 -7 -9 -15
-9 -15 0 -20 12 -9 23 8 8 24 -1 24 -14z m6967 -6 c2 -6 -4 -19 -14 -29 -17
-17 -18 -17 -21 0 -8 37 24 63 35 29z m-2792 -25 c-13 -58 -55 -86 -55 -37 0
27 29 69 47 69 11 0 13 -7 8 -32z m3420 6 c0 -10 -8 -20 -17 -22 -18 -3 -26
27 -11 42 12 11 28 0 28 -20z m165 -13 c9 -24 9 -34 -4 -59 -24 -46 -20 -61
25 -103 36 -33 40 -42 37 -76 -3 -35 -6 -38 -36 -41 -29 -3 -34 0 -48 33 -8
20 -12 40 -9 45 3 5 -6 12 -20 16 -33 8 -42 44 -20 78 13 20 16 37 11 71 -8
53 -3 65 28 65 17 0 27 -9 36 -29z m-7648 2 c23 -21 23 -36 -1 -57 -40 -37
-87 3 -58 48 20 30 33 32 59 9z m6488 -2 c0 -20 -25 -47 -33 -34 -7 12 11 53
23 53 5 0 10 -8 10 -19z m2290 5 c0 -8 -4 -17 -9 -20 -10 -7 -23 19 -14 28 11
11 23 6 23 -8z m-126 -55 c8 -12 -3 -41 -15 -41 -5 0 -9 11 -9 25 0 25 14 34
24 16z m-7569 -60 c-4 -13 -13 -21 -23 -19 -21 4 -27 34 -11 54 11 13 14 13
27 1 9 -9 11 -23 7 -36z m5345 -18 c0 -30 -10 -54 -21 -47 -10 6 -12 77 -2 87
9 10 23 -13 23 -40z m1950 37 c0 -5 -7 -10 -15 -10 -8 0 -15 5 -15 10 0 6 7
10 15 10 8 0 15 -4 15 -10z m110 -15 c0 -12 -69 -65 -84 -65 -6 0 -14 38 -9
44 3 3 14 1 24 -5 15 -8 21 -4 34 21 16 30 35 33 35 5z m-1530 1 c0 -7 -11
-26 -25 -42 -14 -16 -31 -35 -37 -43 -9 -11 -13 -11 -16 -2 -2 7 5 23 17 35
12 12 21 27 21 32 0 12 21 34 32 34 4 0 8 -6 8 -14z m-6620 -32 c0 -8 -4 -12
-10 -9 -5 3 -10 10 -10 16 0 5 5 9 10 9 6 0 10 -7 10 -16z m-194 -30 c25 -4
48 -30 41 -48 -9 -23 -22 -20 -59 12 -23 21 -29 34 -24 48 6 15 9 16 16 4 5
-7 16 -15 26 -16z m7372 -2 c2 -13 -3 -25 -13 -28 -22 -9 -27 -1 -19 30 7 31
28 29 32 -2z m465 0 c9 -8 17 -28 17 -43 0 -40 -43 -131 -69 -147 -12 -7 -21
-22 -21 -37 0 -31 -16 -33 -24 -2 -6 21 -7 21 -21 3 -8 -11 -12 -29 -9 -42 5
-17 -4 -29 -42 -58 -56 -43 -77 -47 -68 -11 8 31 -7 32 -41 3 -20 -18 -24 -28
-19 -54 7 -38 -13 -56 -22 -19 -8 33 -44 35 -44 3 0 -13 -7 -32 -15 -42 -8
-11 -15 -30 -15 -43 0 -20 4 -22 25 -17 19 5 25 2 25 -10 0 -24 -31 -32 -45
-13 -7 10 -20 17 -29 17 -25 0 -31 28 -12 66 24 51 21 74 -9 74 -18 0 -25 5
-25 18 0 28 11 34 31 16 17 -15 21 -13 68 34 28 28 51 59 51 69 0 10 7 29 17
42 9 13 19 38 22 55 6 26 12 31 40 34 49 5 81 -5 81 -27 0 -28 10 -31 39 -14
28 17 90 83 91 96 0 13 -28 7 -34 -8 -3 -8 -15 -15 -26 -15 -16 0 -20 7 -20
31 0 52 16 71 53 64 18 -4 40 -14 50 -23z m-4323 -14 c-1 -31 -2 -32 -15 -15
-7 11 -11 25 -8 33 10 25 23 15 23 -18z m4958 -19 c-2 -24 -9 -35 -22 -37 -17
-4 -18 0 -11 34 4 22 9 43 12 47 11 17 24 -11 21 -44z m-7390 -1 c-4 -27 -28
-36 -28 -10 0 20 8 32 22 32 5 0 8 -10 6 -22z m2502 -18 c0 -5 -4 -10 -10 -10
-5 0 -10 5 -10 10 0 6 5 10 10 10 6 0 10 -4 10 -10z m3721 -23 c-16 -16 -26 0
-10 19 9 11 15 12 17 4 2 -6 -1 -17 -7 -23z m-3953 11 c-6 -18 -28 -21 -28 -4
0 9 7 16 16 16 9 0 14 -5 12 -12z m2952 -28 c0 -16 -4 -30 -10 -30 -5 0 -10
14 -10 30 0 17 5 30 10 30 6 0 10 -13 10 -30z m-7413 -2 c-3 -8 -6 -5 -6 6 -1
11 2 17 5 13 3 -3 4 -12 1 -19z m3929 8 c8 -21 -14 -56 -36 -56 -26 0 -32 13
-20 44 10 28 47 36 56 12z m3874 -56 c0 -11 -15 -48 -32 -82 -27 -51 -34 -58
-36 -39 -2 13 1 28 7 34 6 6 11 26 11 45 0 21 7 40 18 48 24 19 32 17 32 -6z
m560 -9 c5 -11 10 -35 10 -53 -1 -30 -2 -31 -14 -15 -7 9 -20 17 -28 17 -8 0
-22 6 -32 13 -15 11 -17 17 -7 35 15 28 56 29 71 3z m248 -14 c3 -22 -6 -38
-38 -70 -40 -40 -42 -41 -56 -23 -13 19 -14 19 -48 1 -44 -24 -54 -14 -33 30
12 26 32 43 74 64 73 36 97 36 101 -2z m382 -6 c13 -26 13 -31 -5 -31 -8 0
-20 -9 -27 -20 -18 -28 -38 -25 -38 5 0 27 27 65 47 65 7 0 17 -9 23 -19z
m-4262 -15 c3 -12 -1 -17 -10 -14 -7 3 -15 13 -16 22 -3 12 1 17 10 14 7 -3
15 -13 16 -22z m2577 15 c3 -5 1 -12 -5 -16 -5 -3 -10 1 -10 9 0 18 6 21 15 7z
m-6119 -26 c7 -21 -25 -46 -62 -49 -22 -2 -49 -6 -61 -10 -42 -13 -25 21 27
57 35 23 90 24 96 2z m6262 -7 c-2 -6 -10 -14 -16 -16 -7 -2 -10 2 -6 12 7 18
28 22 22 4z m-2780 -67 c-3 -30 -35 -41 -44 -16 -4 9 -1 28 5 42 10 21 14 23
27 12 8 -7 14 -24 12 -38z m140 27 c14 -14 16 -58 3 -58 -12 0 -16 8 -25 43
-7 29 2 35 22 15z m2612 6 c0 -15 -22 -44 -31 -39 -18 12 -10 45 11 45 11 0
20 -3 20 -6z m-6225 -90 l-28 -26 42 -42 c42 -43 51 -70 27 -79 -10 -4 -19 7
-30 32 -18 45 -43 59 -65 35 -12 -12 -13 -18 -3 -21 43 -16 58 -84 22 -103
-29 -16 -24 -30 10 -30 35 0 49 -23 31 -52 -12 -20 -6 -42 10 -33 5 4 9 2 9
-3 0 -11 -34 -22 -66 -22 -11 0 -29 9 -38 19 -10 11 -32 21 -50 23 -29 3 -31
6 -34 46 -2 27 3 53 12 67 10 15 12 26 6 30 -17 10 -11 71 9 96 10 13 21 34
25 47 9 26 37 43 86 52 49 9 59 -5 25 -36z m1595 16 c0 -5 -5 -10 -11 -10 -5
0 -7 5 -4 10 3 6 8 10 11 10 2 0 4 -4 4 -10z m5620 -16 c0 -24 -51 -105 -64
-101 -22 7 -16 43 14 80 34 40 50 47 50 21z m-4722 -26 c2 -19 -2 -28 -17 -33
-28 -8 -41 1 -41 30 0 14 7 25 18 28 28 7 37 2 40 -25z m-3450 -24 c2 -29 -4
-53 -19 -78 l-22 -38 -13 30 c-7 17 -20 34 -29 39 -12 7 -16 20 -13 44 2 29 8
35 33 40 52 12 60 7 63 -37z m4722 15 c0 -24 -23 -21 -28 4 -2 10 3 17 12 17
10 0 16 -9 16 -21z m3290 6 c0 -8 -4 -15 -9 -15 -13 0 -22 16 -14 24 11 11 23
6 23 -9z m830 -4 c0 -11 -5 -23 -11 -27 -15 -9 -33 12 -26 30 9 23 37 20 37
-3z m-4347 -86 c-25 -34 -33 -31 -33 14 0 65 9 77 31 41 18 -30 19 -32 2 -55z
m3052 44 c-4 -12 -16 -30 -27 -41 l-20 -20 7 24 c4 12 9 31 11 41 3 9 12 17
20 17 11 0 13 -6 9 -21z m685 -9 c0 -5 -4 -10 -10 -10 -5 0 -10 5 -10 10 0 6
5 10 10 10 6 0 10 -4 10 -10z m283 4 c8 -8 -13 -64 -24 -64 -11 0 -23 46 -14
59 7 12 28 15 38 5z m-5783 -29 c0 -8 -4 -15 -10 -15 -5 0 -10 7 -10 15 0 8 5
15 10 15 6 0 10 -7 10 -15z m5098 -11 c1 -10 -6 -36 -16 -56 l-19 -37 -12 25
c-16 36 -14 72 7 83 23 14 36 9 40 -15z m-3188 1 c0 -8 -4 -15 -10 -15 -5 0
-10 7 -10 15 0 8 5 15 10 15 6 0 10 -7 10 -15z m3997 -11 c1 -5 -2 -16 -7 -24
-12 -20 -33 0 -24 24 7 17 25 17 31 0z m-1387 -2 c0 -5 -13 -18 -30 -30 -16
-13 -30 -30 -30 -39 0 -9 -17 -31 -39 -49 -23 -20 -41 -46 -44 -64 -7 -35 -31
-40 -47 -10 -8 16 -6 26 12 50 12 17 32 37 45 45 13 9 23 21 23 27 0 21 63 78
87 78 13 0 23 -4 23 -8z m925 -2 c3 -5 -3 -15 -15 -22 -11 -7 -20 -20 -20 -28
0 -9 -11 -31 -25 -50 -14 -18 -28 -49 -31 -67 -3 -18 -16 -40 -27 -48 -18 -12
-19 -18 -9 -40 16 -34 15 -42 -4 -49 -10 -4 -25 1 -36 11 -17 15 -21 15 -29 3
-11 -17 -4 -67 12 -87 6 -7 24 -13 40 -13 24 0 29 -4 29 -25 0 -16 6 -25 15
-25 21 0 136 108 155 145 18 36 62 49 53 15 -3 -11 -16 -29 -29 -39 -18 -14
-24 -30 -26 -72 -3 -50 -5 -54 -30 -57 -15 -2 -45 -21 -67 -42 -33 -33 -42
-36 -52 -24 -18 21 -26 17 -33 -17 -7 -38 -39 -37 -44 1 -2 14 -13 49 -25 77
-19 45 -26 53 -49 53 -35 0 -35 10 -2 80 14 30 29 62 33 70 4 8 22 22 39 30
26 12 32 21 32 47 0 46 44 123 88 155 42 30 48 32 57 18z m-3755 -20 c0 -6 -7
-21 -16 -35 -11 -16 -13 -29 -6 -42 12 -22 5 -43 -14 -43 -16 0 -20 55 -4 65
6 3 10 16 10 29 0 12 3 26 7 29 10 10 23 8 23 -3z m4650 -15 c0 -8 -4 -15 -10
-15 -5 0 -10 7 -10 15 0 8 5 15 10 15 6 0 10 -7 10 -15z m-4782 -21 c31 -9 28
-31 -8 -49 -46 -24 -58 -20 -58 20 0 37 13 43 66 29z m3242 -3 c0 -5 -7 -14
-15 -21 -12 -10 -15 -10 -15 2 0 8 3 18 7 21 9 10 23 9 23 -2z m-6420 -19 c0
-13 -12 -22 -22 -16 -10 6 -1 24 13 24 5 0 9 -4 9 -8z m3430 -11 c0 -11 -39
-21 -45 -11 -2 4 -2 10 2 14 10 9 43 7 43 -3z m3225 -51 c-28 -40 -45 -51 -45
-27 0 16 59 81 67 73 3 -3 -7 -24 -22 -46z m-362 -5 c4 -27 0 -44 -20 -75 -26
-40 -43 -51 -43 -28 0 6 -7 19 -16 29 -21 23 -9 42 22 35 27 -7 48 21 34 44
-5 8 -6 18 -4 22 11 17 22 6 27 -27z m1611 -25 c-10 -22 -21 -40 -26 -40 -13
0 -9 37 5 52 7 7 17 22 21 33 5 13 10 15 13 8 2 -7 -3 -31 -13 -53z m-4516 22
c2 -13 -3 -25 -11 -28 -9 -3 -18 -25 -22 -55 -6 -43 -10 -49 -31 -49 -20 0
-24 5 -24 30 0 20 9 39 23 53 13 12 27 35 31 50 8 32 29 31 34 -1z m3672 12
c0 -8 -4 -12 -10 -9 -5 3 -10 10 -10 16 0 5 5 9 10 9 6 0 10 -7 10 -16z m-959
-19 c0 -13 -41 -19 -41 -7 0 11 20 22 33 18 5 -1 8 -6 8 -11z m-3028 -10 c4
-8 2 -17 -3 -20 -6 -4 -10 3 -10 14 0 25 6 27 13 6z m2547 -26 c0 -6 -7 -17
-15 -25 -16 -16 -19 -7 -9 20 7 18 24 22 24 5z m964 -87 c-24 -40 -56 -50 -62
-19 -3 12 9 30 30 47 44 38 61 23 32 -28z m-441 1 c-10 -14 -25 -39 -34 -55
-8 -16 -19 -33 -25 -36 -19 -14 -81 -98 -88 -118 -3 -12 -20 -33 -36 -48 -17
-14 -30 -34 -30 -44 0 -19 -18 -42 -32 -42 -15 0 -8 59 9 76 9 9 27 37 38 63
12 25 43 65 68 89 26 23 47 46 47 51 0 8 33 49 72 89 28 29 37 11 11 -25z
m-343 22 c0 -8 -4 -15 -10 -15 -5 0 -10 7 -10 15 0 8 5 15 10 15 6 0 10 -7 10
-15z m190 -39 c0 -14 -5 -28 -10 -31 -13 -8 -24 20 -16 40 9 24 26 17 26 -9z
m240 7 c0 -5 -11 -21 -25 -38 -27 -33 -34 -18 -9 20 16 24 34 33 34 18z
m-3222 -64 c-5 -16 -14 -32 -19 -35 -14 -8 -11 60 3 74 18 18 28 -5 16 -39z
m3490 10 c2 -13 8 -30 14 -36 12 -15 -14 -28 -37 -19 -15 5 -21 66 -8 80 12
12 28 0 31 -25z m-3318 -15 c0 -13 -4 -24 -10 -24 -5 0 -10 14 -10 31 0 17 4
28 10 24 6 -3 10 -17 10 -31z m4020 -33 c0 -11 -9 -23 -21 -26 -27 -9 -33 -1
-19 24 14 26 40 27 40 2z m90 10 c0 -6 -4 -13 -10 -16 -5 -3 -10 1 -10 9 0 9
5 16 10 16 6 0 10 -4 10 -9z m-670 -25 c0 -22 -29 -41 -42 -28 -9 9 -7 17 7
32 18 20 35 18 35 -4z m-5370 -16 c0 -11 -6 -20 -14 -20 -18 0 -29 16 -21 30
11 18 35 11 35 -10z m1790 -10 c0 -5 -4 -10 -10 -10 -5 0 -10 5 -10 10 0 6 5
10 10 10 6 0 10 -4 10 -10z m2647 -32 c-3 -7 -5 -2 -5 12 0 14 2 19 5 13 2 -7
2 -19 0 -25z m-2713 16 c10 -4 16 -18 16 -35 0 -26 -4 -29 -30 -29 -23 0 -31
5 -36 24 -10 40 10 56 50 40z m4776 -12 c0 -11 -63 -82 -73 -82 -15 0 -6 21
24 55 30 34 49 44 49 27z m-4710 -62 c8 -16 8 -20 -3 -20 -18 0 -39 24 -30 33
11 12 22 8 33 -13z m3696 -42 c-8 -49 -13 -58 -30 -58 -19 0 -24 28 -14 68 6
23 14 32 30 32 19 0 20 -4 14 -42z m-436 24 c0 -11 -72 -109 -103 -142 -35
-37 -97 -121 -97 -133 0 -6 -23 -35 -50 -66 -28 -31 -63 -70 -78 -88 -15 -17
-39 -37 -54 -43 -31 -14 -38 -40 -11 -40 19 0 99 44 131 73 17 16 25 18 35 8
21 -21 -21 -84 -61 -92 -18 -4 -41 -14 -51 -23 -10 -9 -25 -16 -34 -16 -10 0
-25 -9 -34 -20 -10 -11 -29 -20 -43 -20 -35 0 -88 -34 -108 -70 -9 -16 -29
-34 -45 -39 -15 -6 -30 -17 -33 -26 -4 -9 -18 -15 -35 -15 -19 0 -34 -8 -44
-23 -32 -50 -101 -62 -111 -21 -7 28 13 51 30 34 17 -17 26 -11 26 20 0 33 2
35 32 19 18 -10 25 -8 39 10 9 11 22 21 27 21 17 0 62 41 62 57 0 21 58 73 82
73 11 0 22 8 25 19 3 11 13 21 24 24 14 4 19 14 19 36 0 21 6 33 18 37 57 19
73 30 99 67 15 23 34 47 42 53 10 8 12 21 7 47 -4 23 -3 37 3 37 11 0 81 68
153 149 69 77 138 124 138 93z m-470 -62 c0 -13 -7 -20 -20 -20 -22 0 -23 1
-14 24 9 23 34 20 34 -4z m760 -19 c0 -19 -47 -65 -54 -53 -3 6 1 17 9 24 9 7
21 18 28 25 15 15 17 16 17 4z m251 -24 c-16 -16 -26 0 -10 19 9 11 15 12 17
4 2 -6 -1 -17 -7 -23z m-964 -3 c8 -23 -22 -81 -46 -89 -12 -3 -21 -11 -21
-16 0 -14 -50 -59 -66 -59 -8 0 -14 5 -14 12 0 19 42 58 62 58 10 0 18 7 18
16 0 19 42 94 53 94 4 0 10 -7 14 -16z m-222 -35 c0 -8 -10 -15 -22 -17 -25
-4 -33 22 -10 31 18 8 32 2 32 -14z m95 1 c0 -26 -25 -36 -45 -20 -12 10 -13
16 -4 26 18 22 49 17 49 -6z m770 -19 c0 -23 -14 -41 -31 -41 -21 0 -25 20 -7
38 14 14 38 16 38 3z m1075 -50 c-4 -17 -13 -31 -21 -31 -17 0 -18 33 -3 62
16 29 33 8 24 -31z m-4625 -10 c0 -12 -20 -25 -27 -18 -7 7 6 27 18 27 5 0 9
-4 9 -9z m2041 -10 l24 -19 -23 -31 c-31 -43 -39 -86 -17 -95 14 -5 15 -9 5
-21 -7 -8 -18 -15 -25 -15 -17 0 -65 -72 -65 -98 0 -12 -4 -22 -9 -22 -5 0
-13 -15 -17 -32 -3 -18 -13 -43 -21 -55 -11 -16 -13 -34 -8 -60 6 -32 5 -35
-8 -24 -13 10 -18 8 -31 -11 -9 -12 -16 -30 -16 -40 0 -30 -37 -7 -68 42 -16
25 -70 91 -121 148 -52 57 -89 107 -85 113 4 7 34 24 68 39 33 16 84 43 111
62 28 19 80 51 117 72 36 20 72 43 78 51 18 21 83 19 111 -4z m1275 -28 c-11
-11 -17 4 -9 23 7 18 8 18 11 1 2 -10 1 -21 -2 -24z m-3366 -2 c0 -5 -7 -14
-15 -21 -12 -10 -15 -10 -15 2 0 8 3 18 7 21 9 10 23 9 23 -2z m2180 -12 c0
-5 -4 -9 -10 -9 -5 0 -10 7 -10 16 0 8 5 12 10 9 6 -3 10 -10 10 -16z m1265
-19 c-16 -16 -33 -30 -38 -30 -15 0 37 59 52 59 9 1 4 -10 -14 -29z m-109 -7
c-10 -10 -19 5 -10 18 6 11 8 11 12 0 2 -7 1 -15 -2 -18z m1276 -18 c-6 -14
-18 -25 -27 -25 -21 0 -19 47 3 59 25 14 38 -3 24 -34z m-2118 25 c37 -14 32
-31 -19 -63 -25 -16 -45 -34 -45 -42 0 -7 -7 -18 -15 -25 -8 -7 -15 -22 -15
-34 0 -23 -63 -126 -84 -138 -16 -9 -51 -86 -43 -94 3 -4 13 1 22 10 9 9 21
14 26 11 16 -10 10 -25 -11 -25 -13 0 -22 -9 -26 -25 -3 -14 -13 -25 -21 -25
-17 0 -84 -71 -123 -131 -14 -21 -53 -74 -87 -118 -35 -45 -63 -85 -63 -90 0
-4 -16 -23 -35 -42 -19 -19 -35 -39 -35 -45 0 -12 -73 -64 -90 -64 -18 0 -11
14 33 65 72 86 117 158 117 190 0 10 25 55 55 100 30 46 55 86 55 89 0 4 -9 6
-20 6 -25 0 -28 41 -4 60 8 8 21 28 29 46 7 18 22 41 32 52 10 12 27 33 38 47
11 15 33 41 49 58 15 18 34 47 42 65 8 18 25 38 39 44 13 6 28 23 34 39 5 15
19 32 30 39 12 6 21 20 21 30 0 17 7 20 44 20 25 0 56 -4 70 -10z m239 -27
c-3 -21 -17 -51 -30 -66 -12 -16 -23 -33 -23 -38 0 -12 -37 -12 -44 0 -3 5 8
27 25 50 16 23 34 53 39 67 5 13 16 24 24 24 11 0 13 -9 9 -37z m315 13 c4
-19 -41 -66 -63 -66 -8 0 -21 -10 -29 -22 -13 -18 -18 -19 -31 -8 -33 27 -18
57 43 89 62 32 75 33 80 7z m606 9 c-6 -16 -34 -21 -34 -7 0 13 11 22 26 22 8
0 11 -6 8 -15z m-774 -41 c0 -8 -7 -14 -15 -14 -15 0 -21 21 -9 33 10 9 24 -2
24 -19z m-5793 -6 c-3 -8 -6 -5 -6 6 -1 11 2 17 5 13 3 -3 4 -12 1 -19z m2993
-3 c0 -14 -4 -25 -10 -25 -5 0 -10 11 -10 25 0 14 5 25 10 25 6 0 10 -11 10
-25z m3166 -24 c-3 -22 -2 -42 3 -45 10 -6 35 20 44 47 9 24 41 18 45 -8 4
-30 -31 -78 -72 -99 l-36 -19 -30 28 c-38 36 -38 56 1 100 41 46 53 45 45 -4z
m1319 -1 c-3 -5 -10 -10 -16 -10 -5 0 -9 5 -9 10 0 6 7 10 16 10 8 0 12 -4 9
-10z m-64 -77 c-9 -16 -10 -14 -11 12 0 21 3 26 11 18 8 -8 8 -16 0 -30z
m-1896 -19 c-8 -20 -15 -44 -15 -54 0 -10 -6 -20 -14 -23 -7 -3 -22 -31 -31
-61 -10 -31 -23 -63 -30 -73 -11 -15 -13 -15 -24 6 -10 18 -9 27 3 46 9 14 16
30 16 38 0 17 90 157 102 157 4 0 1 -16 -7 -36z m-3489 -11 c-10 -10 -19 5
-10 18 6 11 8 11 12 0 2 -7 1 -15 -2 -18z m874 -13 c13 -25 5 -40 -21 -40 -22
0 -34 22 -25 45 8 21 33 19 46 -5z m4393 14 c11 -12 -20 -58 -82 -121 -64 -66
-78 -73 -88 -48 -3 11 21 42 73 95 81 81 86 85 97 74z m-6593 -45 c0 -11 -4
-17 -10 -14 -5 3 -10 13 -10 21 0 8 5 14 10 14 6 0 10 -9 10 -21z m1270 2 c0
-20 -36 -71 -51 -71 -16 0 -10 37 12 64 24 31 39 33 39 7z m3820 15 c0 -3 -4
-8 -10 -11 -5 -3 -10 -1 -10 4 0 6 5 11 10 11 6 0 10 -2 10 -4z m360 -20 c0
-28 -17 -43 -32 -28 -7 7 -6 17 1 31 16 28 31 27 31 -3z m-3503 -28 c-3 -8 -6
-5 -6 6 -1 11 2 17 5 13 3 -3 4 -12 1 -19z m2917 14 c8 -13 -23 -52 -40 -52
-17 0 -19 46 -1 53 19 8 35 8 41 -1z m-2624 -37 c19 -22 6 -29 -50 -26 l-49 2
-3 -42 c-4 -52 -22 -61 -37 -18 -15 44 -14 48 14 59 14 5 25 16 25 25 0 21 83
21 100 0z m3281 -54 c-7 -12 -16 -21 -21 -21 -14 0 -12 34 2 48 18 18 32 -2
19 -27z m-6601 -23 c0 -15 -9 -27 -25 -35 -28 -12 -31 -6 -13 32 14 31 38 33
38 3z m6006 -7 c-8 -13 -36 -15 -36 -3 0 4 5 13 12 20 14 14 34 0 24 -17z
m1439 -6 c-16 -13 -37 -24 -45 -24 -9 0 -4 9 15 24 17 14 37 25 45 25 9 0 4
-9 -15 -25z m-3447 -18 c2 -12 -3 -17 -17 -17 -12 0 -21 6 -21 13 0 31 32 34
38 4z m-674 2 c31 -14 39 -34 25 -61 -7 -13 -16 -17 -27 -12 -9 3 -28 6 -41 5
-21 -1 -23 2 -17 31 3 18 12 36 19 40 15 10 12 10 41 -3z m2410 2 c3 -5 -5
-28 -17 -52 -18 -33 -30 -45 -50 -47 -15 -2 -27 -7 -27 -12 0 -5 -13 -16 -28
-24 -15 -8 -33 -26 -40 -40 -6 -14 -17 -26 -24 -26 -7 0 -21 -14 -30 -30 -9
-17 -22 -30 -28 -30 -17 0 -11 39 9 59 11 11 21 27 23 38 2 11 13 19 30 21 15
2 30 11 33 21 3 10 16 23 28 28 13 6 38 31 57 57 34 44 53 55 64 37z m3078
-73 c-30 -30 -36 -18 -15 27 16 34 18 35 27 15 7 -16 5 -26 -12 -42z m-8582
44 c0 -4 -12 -19 -27 -33 -16 -14 -36 -35 -45 -47 -10 -12 -22 -22 -28 -22
-21 0 -9 24 34 66 40 41 66 55 66 36z m2950 -6 c0 -15 -37 -32 -47 -22 -3 3
-3 12 0 21 8 19 47 20 47 1z m737 3 c15 -15 5 -39 -17 -39 -17 0 -34 33 -22
44 9 9 27 7 39 -5z m2443 -2 c0 -18 -34 -49 -43 -40 -4 3 -7 17 -7 30 0 18 5
23 25 23 14 0 25 -6 25 -13z m1020 3 c0 -5 -10 -15 -22 -21 -13 -7 -27 -18
-31 -25 -10 -18 -67 -47 -67 -35 0 12 92 90 108 91 6 0 12 -4 12 -10z m135
-49 c-16 -32 -34 -52 -54 -61 -17 -7 -36 -18 -42 -26 -6 -8 -20 -14 -30 -14
-13 0 -19 -7 -19 -23 0 -12 -8 -30 -17 -39 -25 -24 -38 -37 -59 -60 -70 -74
-99 -100 -127 -113 -51 -23 -89 -47 -157 -98 -44 -33 -71 -47 -88 -45 -47 6
-33 26 60 88 51 34 109 78 128 96 20 19 40 34 45 34 12 0 75 58 75 69 0 16 93
101 111 101 11 0 19 7 19 16 0 9 14 29 31 45 24 22 35 27 45 18 15 -12 34 -4
34 14 0 14 52 57 62 51 4 -3 -3 -27 -17 -53z m-3710 39 c3 -5 1 -10 -4 -10 -6
0 -11 5 -11 10 0 6 2 10 4 10 3 0 8 -4 11 -10z m1070 -67 c35 -27 66 -56 69
-66 4 -16 -48 -77 -66 -77 -5 0 -21 -19 -38 -41 -24 -34 -28 -45 -19 -61 17
-31 -3 -43 -39 -24 -36 19 -44 46 -25 83 20 39 9 85 -38 155 -40 58 -43 84 -8
75 10 -3 26 1 36 8 23 17 48 7 128 -52z m-4336 10 c12 -8 13 -15 5 -23 -14
-14 -49 34 -38 52 6 9 9 8 12 -2 3 -8 12 -20 21 -27z m6242 9 c-6 -2 -25 -15
-42 -29 -16 -14 -33 -22 -37 -18 -4 4 -1 10 7 13 8 2 28 18 45 34 20 20 32 25
35 17 2 -7 -1 -15 -8 -17z m-7251 -1 c0 -6 -4 -13 -10 -16 -5 -3 -10 1 -10 9
0 9 5 16 10 16 6 0 10 -4 10 -9z m7640 -2 c0 -12 -80 -88 -92 -89 -21 -1 -4
42 27 69 36 31 65 40 65 20z m-2122 -41 c12 -15 -6 -98 -21 -98 -5 0 -6 11 -3
24 4 16 -1 32 -15 50 -25 32 -19 62 9 47 10 -5 24 -16 30 -23z m2852 8 c0 -16
-26 -46 -41 -46 -5 0 -15 -15 -22 -32 -8 -18 -38 -64 -67 -103 -29 -38 -61
-88 -70 -110 -18 -43 -71 -95 -96 -95 -27 0 -14 26 46 89 33 35 62 73 63 85 2
19 -2 21 -40 18 -24 -2 -43 1 -43 7 0 16 161 140 191 146 15 4 35 17 43 31 18
27 36 32 36 10z m-1580 -5 c0 -12 -20 -25 -27 -18 -7 7 6 27 18 27 5 0 9 -4 9
-9z m-486 -11 c37 -14 32 -40 -16 -85 -24 -21 -45 -48 -48 -59 -3 -12 -16 -22
-28 -24 -26 -4 -30 -33 -7 -52 12 -10 21 -10 40 -2 26 12 55 7 55 -10 0 -5
-29 -38 -65 -72 -36 -34 -65 -70 -65 -80 0 -35 -70 -106 -105 -106 -12 0 -3
23 21 55 16 21 25 45 23 62 -1 15 2 36 6 46 4 9 5 26 2 37 -3 10 2 28 10 39
14 21 10 41 -8 41 -5 0 -9 -5 -9 -10 0 -16 -90 -100 -107 -100 -11 0 -14 7 -9
28 7 26 23 44 77 87 14 11 31 31 38 44 9 17 19 21 35 17 22 -5 28 1 58 67 7
15 16 27 21 27 4 0 13 14 18 30 12 32 23 36 63 20z m-5726 -27 c-2 -10 -11
-19 -21 -21 -16 -3 -17 -1 -7 17 13 25 33 28 28 4z m11072 -8 c0 -18 -5 -25
-20 -25 -23 0 -24 4 -10 31 15 27 30 24 30 -6z m-8060 -2 c0 -10 -4 -24 -9
-31 -11 -18 -34 10 -25 32 8 21 34 21 34 -1z m3064 -34 c-18 -20 -44 -26 -44
-9 0 6 12 22 28 36 23 22 28 24 30 9 2 -9 -4 -25 -14 -36z m-5684 26 c0 -8 -7
-15 -15 -15 -8 0 -15 7 -15 15 0 8 7 15 15 15 8 0 15 -7 15 -15z m-800 -4 c0
-12 -20 -25 -27 -18 -7 7 6 27 18 27 5 0 9 -4 9 -9z m2910 -45 c-14 -14 -24 0
-16 21 6 15 8 15 16 3 6 -9 5 -19 0 -24z m920 -27 c0 -6 -56 -39 -67 -39 -10
0 -1 79 10 83 12 4 57 -30 57 -44z m-2810 31 c0 -5 -4 -10 -10 -10 -5 0 -10 5
-10 10 0 6 5 10 10 10 6 0 10 -4 10 -10z m5528 -2 c-6 -18 -28 -21 -28 -4 0 9
7 16 16 16 9 0 14 -5 12 -12z m-2329 -54 c12 -20 20 -39 17 -41 -9 -9 -68 56
-61 67 11 18 23 11 44 -26z m3091 26 c0 -5 -7 -10 -15 -10 -8 0 -15 5 -15 10
0 6 7 10 15 10 8 0 15 -4 15 -10z m1820 -18 c0 -11 -22 -32 -32 -32 -5 0 -4 9
2 20 11 20 30 28 30 12z m-1860 -10 c0 -12 -59 -66 -65 -60 -7 7 43 68 56 68
5 0 9 -4 9 -8z m-1830 -22 c0 -5 -7 -10 -16 -10 -8 0 -12 5 -9 10 3 6 10 10
16 10 5 0 9 -4 9 -10z m3790 3 c0 -11 -51 -73 -61 -73 -16 0 -10 17 17 49 24
29 44 40 44 24z m-840 -17 c0 -3 -4 -8 -10 -11 -5 -3 -10 -1 -10 4 0 6 5 11
10 11 6 0 10 -2 10 -4z m350 -11 c-7 -8 -16 -12 -21 -9 -13 8 -1 24 18 24 13
0 13 -3 3 -15z m-3340 -14 c0 -20 -13 -41 -26 -41 -7 0 -17 -7 -22 -17 -11
-19 -46 -10 -40 10 5 13 65 57 79 57 5 0 9 -4 9 -9z m390 -21 c-21 -14 -30
-12 -30 4 0 18 22 27 35 14 6 -6 5 -12 -5 -18z m2130 15 c0 -14 -55 -55 -74
-55 -5 0 8 16 28 35 42 39 46 41 46 20z m-3810 -20 c0 -8 -4 -15 -10 -15 -5 0
-10 7 -10 15 0 8 5 15 10 15 6 0 10 -7 10 -15z m180 -16 c0 -5 -7 -9 -15 -9
-9 0 -15 9 -15 21 0 18 2 19 15 9 8 -7 15 -16 15 -21z m2870 12 c0 -15 -51
-51 -72 -51 -16 0 -17 3 -8 21 16 28 80 53 80 30z m-682 -23 c-6 -18 -28 -21
-28 -4 0 9 7 16 16 16 9 0 14 -5 12 -12z m2102 -38 c0 -10 -10 -25 -22 -31
-13 -7 -28 -19 -34 -27 -6 -8 -17 -13 -25 -10 -10 3 -8 9 9 23 12 11 22 24 22
30 0 15 21 35 37 35 7 0 13 -9 13 -20z m-3512 -48 c35 -53 38 -69 20 -119 -16
-43 -42 -40 -46 5 -3 32 -15 41 -27 22 -9 -14 -48 -13 -63 2 -7 7 -12 21 -12
33 0 12 -4 25 -10 31 -15 15 46 74 78 74 21 0 34 -11 60 -48z m607 30 c0 -18
-20 -15 -23 4 -3 10 1 15 10 12 7 -3 13 -10 13 -16z m-1498 -38 c-4 -4 -14 1
-22 12 -22 29 -18 41 7 17 12 -13 19 -26 15 -29z m272 17 c12 -8 12 -14 1 -40
-7 -17 -16 -31 -21 -31 -4 0 -20 -11 -34 -24 -24 -22 -26 -29 -20 -69 5 -32
13 -48 28 -55 l22 -11 -22 0 c-21 -1 -63 41 -63 62 0 6 -8 19 -17 30 -17 19
-17 20 4 34 19 13 20 18 10 35 -8 14 -9 22 -1 24 5 3 26 15 45 29 38 27 47 29
68 16z m1371 2 c0 -18 -83 -103 -101 -103 -30 0 -22 25 16 51 19 13 35 32 35
42 0 11 8 17 25 17 14 0 25 -3 25 -7z m335 -8 c0 -19 -84 -87 -100 -81 -33 12
-3 71 45 89 22 9 55 4 55 -8z m1945 -4 c0 -12 -20 -25 -27 -18 -7 7 6 27 18
27 5 0 9 -4 9 -9z m-2906 -17 c9 -3 16 -13 16 -21 0 -10 -6 -13 -16 -9 -9 3
-18 6 -20 6 -2 0 -4 7 -4 15 0 17 2 18 24 9z m1766 0 c0 -18 -56 -74 -80 -79
-16 -3 -31 -13 -34 -21 -6 -16 -42 -19 -51 -4 -3 6 2 13 12 17 10 3 33 19 51
35 18 15 42 28 53 28 11 0 22 7 25 15 6 14 24 21 24 9z m1069 -30 c-14 -18
-24 -11 -15 11 3 9 11 13 16 10 8 -5 7 -11 -1 -21z m-3539 -45 c0 -18 -35 -5
-38 14 -3 16 -1 17 17 7 12 -6 21 -15 21 -21z m920 5 c0 -31 -34 -81 -93 -134
-33 -30 -84 -79 -114 -108 -30 -29 -67 -59 -83 -67 -15 -8 -30 -21 -33 -30 -4
-8 -18 -15 -32 -15 -22 0 -25 4 -25 35 0 28 5 38 25 47 13 6 27 19 30 30 4 10
10 18 15 18 13 0 69 40 110 78 27 25 32 34 22 44 -24 24 -14 36 26 31 36 -5
40 -2 73 40 41 56 79 70 79 31z m830 4 c0 -6 -12 -26 -26 -45 -21 -28 -28 -32
-40 -22 -13 10 -10 17 18 46 33 34 48 41 48 21z m1750 6 c0 -9 -32 -33 -44
-34 -5 0 -1 9 9 20 18 20 35 26 35 14z m880 -6 c0 -12 -62 -68 -74 -68 -16 0
-3 34 20 55 29 27 54 33 54 13z m-5617 -35 c-3 -7 -9 -13 -14 -13 -11 0 -12
34 -2 43 9 10 22 -13 16 -30z m4597 17 c0 -6 -10 -14 -22 -19 -13 -5 -41 -28
-63 -51 -22 -23 -58 -51 -80 -62 -22 -11 -49 -29 -60 -39 -24 -21 -95 -53
-103 -45 -8 8 28 46 60 62 15 8 40 26 55 40 41 38 128 94 145 94 9 0 18 7 22
15 6 17 46 21 46 5z m-3580 -35 c0 -8 -4 -15 -9 -15 -13 0 -22 16 -14 24 11
11 23 6 23 -9z m3650 -5 c0 -5 -11 -17 -25 -26 -26 -17 -34 -59 -12 -67 6 -3
-7 -2 -30 0 -30 4 -43 2 -43 -7 0 -6 9 -14 20 -17 36 -10 15 -33 -29 -33 -10
0 -26 -9 -36 -20 -10 -11 -25 -20 -33 -20 -9 0 -26 -10 -38 -21 -15 -14 -29
-19 -41 -14 -16 6 -14 10 17 36 19 16 49 35 67 41 20 7 33 19 33 29 0 19 52
79 69 79 6 0 21 11 33 25 22 25 48 33 48 15z m-2050 -13 c0 -7 -5 -18 -12 -25
-7 -7 -18 -12 -25 -12 -16 0 -17 22 -1 38 16 16 38 15 38 -1z m1260 -2 c-7 -8
-17 -15 -22 -15 -6 0 -5 7 2 15 7 8 17 15 22 15 6 0 5 -7 -2 -15z m-7707 -26
c-17 -17 -37 -1 -22 17 8 10 15 12 23 4 7 -7 7 -13 -1 -21z m6687 7 c0 -19
-19 -41 -57 -67 -52 -35 -78 -35 -78 1 0 18 7 26 31 32 17 4 37 15 44 23 11
13 60 22 60 11z m-1412 -38 c-2 -25 -8 -34 -25 -36 -13 -2 -23 -7 -23 -12 0
-5 -3 -16 -7 -26 -5 -14 -1 -16 26 -12 36 5 39 -1 43 -92 3 -52 4 -55 27 -52
30 3 41 -12 41 -55 0 -26 6 -36 30 -48 28 -14 80 -12 80 4 0 3 3 16 6 29 5 16
2 22 -10 22 -9 0 -16 5 -16 10 0 6 5 10 10 10 6 0 24 9 39 21 24 17 32 19 51
9 13 -7 19 -17 16 -27 -3 -8 -6 -19 -6 -24 0 -5 -6 -9 -13 -9 -7 0 -30 -20
-52 -45 -42 -47 -68 -56 -79 -29 -6 15 -8 15 -26 -1 -16 -14 -19 -26 -14 -50
4 -25 1 -36 -13 -46 -10 -8 -24 -23 -31 -34 -59 -93 -87 -117 -135 -113 -24 1
-46 -7 -78 -30 l-45 -32 -42 17 c-48 20 -53 38 -17 55 20 9 31 8 51 -2 23 -13
27 -12 50 14 15 15 23 30 19 34 -4 4 -10 1 -12 -5 -6 -17 -23 -16 -23 1 0 19
76 86 99 86 10 0 26 11 35 25 9 14 23 25 31 25 8 0 22 11 31 25 9 14 22 25 30
25 23 0 25 17 4 41 l-20 24 -18 -23 -18 -23 -14 25 c-7 14 -21 26 -31 26 -21
0 -39 28 -39 60 0 12 -11 35 -25 52 -14 16 -25 36 -25 44 0 25 26 67 59 97 17
15 31 34 31 42 0 13 26 34 43 35 5 0 7 -15 5 -32z m5712 22 c0 -5 -4 -10 -10
-10 -5 0 -10 5 -10 10 0 6 5 10 10 10 6 0 10 -4 10 -10z m-2361 -29 c-24 -32
-59 -48 -59 -26 0 15 48 54 68 55 8 0 5 -10 -9 -29z m1876 3 c0 -18 -44 -66
-55 -59 -15 9 -13 19 11 49 20 25 44 31 44 10z m-4342 -38 c-10 -14 -24 -26
-30 -26 -18 0 -17 4 15 38 31 34 43 25 15 -12z m3037 9 c0 -8 -6 -15 -12 -15
-19 -1 -77 -57 -88 -85 -12 -31 -50 -35 -50 -5 0 13 10 24 25 30 14 5 42 28
62 50 38 41 63 51 63 25z m-6300 -17 c0 -7 -12 -24 -25 -37 -14 -13 -25 -27
-25 -32 0 -5 -7 -9 -15 -9 -22 0 -19 11 17 53 33 38 48 46 48 25z m2063 0 c7
-21 -4 -38 -24 -38 -14 0 -19 7 -19 25 0 18 5 25 19 25 11 0 21 -6 24 -12z
m3907 -2 c0 -17 -14 -29 -23 -20 -8 8 3 34 14 34 5 0 9 -6 9 -14z m2040 -6 c0
-4 -37 -26 -82 -49 -44 -23 -98 -55 -119 -71 -37 -30 -82 -39 -94 -20 -4 6 -1
17 5 26 13 15 94 54 113 54 14 0 97 41 125 62 22 16 52 15 52 -2z m-6120 0 c0
-5 -2 -10 -4 -10 -3 0 -8 5 -11 10 -3 6 -1 10 4 10 6 0 11 -4 11 -10z m3758
-2 c-3 -7 -13 -15 -24 -17 -16 -3 -17 -1 -5 13 16 19 34 21 29 4z m-998 -13
c-7 -8 -17 -15 -22 -15 -6 0 -5 7 2 15 7 8 17 15 22 15 6 0 5 -7 -2 -15z
m-2700 -20 c0 -8 -4 -15 -9 -15 -13 0 -22 16 -14 24 11 11 23 6 23 -9z m1187
-32 c2 -6 -5 -14 -15 -17 -11 -4 -31 -23 -46 -44 -25 -37 -64 -68 -73 -59 -10
10 39 88 60 96 13 5 29 16 36 25 15 18 32 17 38 -1z m883 -3 c0 -5 -6 -10 -13
-10 -8 0 -22 -9 -32 -20 -22 -24 -55 -29 -35 -5 7 8 18 15 25 15 7 0 18 7 25
15 14 17 30 20 30 5z m1120 0 c0 -5 -12 -17 -27 -26 -16 -9 -40 -25 -55 -35
-31 -22 -72 -25 -66 -6 3 6 18 17 34 22 16 6 45 20 64 32 39 25 50 28 50 13z
m2380 -10 c0 -5 -5 -10 -11 -10 -5 0 -7 5 -4 10 3 6 8 10 11 10 2 0 4 -4 4
-10z m-7624 -28 c-18 -16 -18 -16 -6 6 6 13 14 21 18 18 3 -4 -2 -14 -12 -24z
m4654 20 c0 -9 -74 -72 -84 -72 -18 0 0 29 32 52 39 28 52 33 52 20z m-300
-11 c0 -13 -104 -101 -119 -101 -22 0 -11 18 40 64 47 43 79 58 79 37z m1030
-31 c0 -5 -11 -12 -25 -16 -14 -3 -30 -14 -35 -24 -5 -10 -23 -21 -40 -25 -16
-4 -36 -15 -44 -26 -14 -21 -76 -44 -76 -28 0 14 38 49 54 49 7 0 19 7 27 16
16 20 99 63 122 64 9 0 17 -4 17 -10z m-1380 -10 c0 -5 -4 -10 -10 -10 -5 0
-10 5 -10 10 0 6 5 10 10 10 6 0 10 -4 10 -10z m1010 -65 c-7 -8 -17 -15 -22
-15 -6 0 -5 7 2 15 7 8 17 15 22 15 6 0 5 -7 -2 -15z m-822 -7 c9 -9 7 -14 -7
-22 -11 -6 -40 -26 -66 -43 -55 -40 -63 -40 -71 -8 -10 39 1 52 53 68 61 19
76 20 91 5z m-2328 -2 c0 -3 -4 -8 -10 -11 -5 -3 -10 -1 -10 4 0 6 5 11 10 11
6 0 10 -2 10 -4z m-700 -21 c-7 -8 -19 -15 -27 -15 -13 0 -13 3 -3 15 7 8 19
15 27 15 13 0 13 -3 3 -15z m130 5 c0 -5 -4 -10 -10 -10 -5 0 -10 5 -10 10 0
6 5 10 10 10 6 0 10 -4 10 -10z m1630 0 c0 -5 -4 -10 -10 -10 -5 0 -10 5 -10
10 0 6 5 10 10 10 6 0 10 -4 10 -10z m2815 -10 c-3 -5 -13 -10 -21 -10 -8 0
-12 5 -9 10 3 6 13 10 21 10 8 0 12 -4 9 -10z m3435 3 c-1 -5 -12 -21 -25 -38
-20 -24 -27 -27 -37 -17 -10 10 -7 17 17 37 31 25 45 31 45 18z m-7454 -41
c-8 -9 -19 -13 -22 -9 -10 9 16 38 28 31 6 -4 4 -13 -6 -22z m254 16 c0 -7
-22 -35 -47 -63 -26 -27 -69 -76 -96 -107 -38 -47 -54 -58 -77 -58 -37 0 -40
21 -7 47 13 10 29 28 36 41 6 12 18 22 26 22 8 0 17 11 21 25 4 15 29 41 63
65 58 41 81 49 81 28z m2010 2 c0 -20 -137 -133 -151 -125 -14 9 -11 35 6 41
10 4 13 13 10 25 -4 12 -1 19 7 20 29 1 51 8 57 17 16 24 71 41 71 22z m3600
2 c0 -17 -25 -32 -52 -32 -34 0 -37 17 -5 30 28 11 57 12 57 2z m-2435 -12
c-3 -5 -14 -10 -23 -10 -15 0 -15 2 -2 10 20 13 33 13 25 0z m-295 -19 c0 -10
-24 -21 -43 -21 -7 0 -3 7 7 15 22 17 36 19 36 6z m430 0 c0 -12 -20 -25 -27
-18 -7 7 6 27 18 27 5 0 9 -4 9 -9z m-5060 -11 c0 -12 -41 -30 -53 -23 -4 3
-3 11 4 19 13 16 49 19 49 4z m1426 -25 c-21 -16 -32 -13 -21 4 3 6 14 11 23
11 15 -1 15 -2 -2 -15z m2734 -4 c0 -13 -28 -33 -41 -29 -8 3 -6 9 5 21 19 18
36 22 36 8z m2270 -19 c0 -9 -16 -30 -35 -45 -48 -38 -57 -14 -13 35 33 37 48
40 48 10z m-3730 -21 c-10 -20 -39 -35 -48 -26 -8 8 40 55 49 49 5 -3 5 -13
-1 -23z m5892 7 c-7 -7 -12 -8 -12 -2 0 14 12 26 19 19 2 -3 -1 -11 -7 -17z
m-7230 -10 c-7 -7 -12 -8 -12 -2 0 14 12 26 19 19 2 -3 -1 -11 -7 -17z m2408
2 c0 -5 -4 -10 -9 -10 -5 0 -17 -7 -26 -16 -23 -23 -31 -10 -8 14 19 22 43 28
43 12z m2245 0 c-3 -5 -13 -10 -21 -10 -8 0 -12 5 -9 10 3 6 13 10 21 10 8 0
12 -4 9 -10z m-565 -10 c0 -12 -28 -25 -36 -17 -9 9 6 27 22 27 8 0 14 -5 14
-10z m3100 -5 c-7 -8 -17 -15 -22 -15 -6 0 -5 7 2 15 7 8 17 15 22 15 6 0 5
-7 -2 -15z m-6110 -20 c0 -8 -4 -15 -10 -15 -5 0 -10 7 -10 15 0 8 5 15 10 15
6 0 10 -7 10 -15z m2237 -1 c-3 -3 -12 -4 -19 -1 -8 3 -5 6 6 6 11 1 17 -2 13
-5z m1011 -16 c-3 -7 -13 -15 -24 -17 -16 -3 -17 -1 -5 13 16 19 34 21 29 4z
m-2011 -14 c-3 -3 -12 -4 -19 -1 -8 3 -5 6 6 6 11 1 17 -2 13 -5z m688 -4 c3
-5 -1 -10 -10 -10 -9 0 -13 5 -10 10 3 6 8 10 10 10 2 0 7 -4 10 -10z m-2465
-20 c0 -5 -2 -10 -4 -10 -3 0 -8 5 -11 10 -3 6 -1 10 4 10 6 0 11 -4 11 -10z
m2091 -13 c-13 -13 -26 -3 -16 12 3 6 11 8 17 5 6 -4 6 -10 -1 -17z m1859 3
c0 -5 -5 -10 -11 -10 -5 0 -7 5 -4 10 3 6 8 10 11 10 2 0 4 -4 4 -10z m-90
-15 c0 -2 -10 -9 -22 -15 -22 -11 -22 -10 -4 4 21 17 26 19 26 11z m1070 -2
c0 -12 -43 -53 -57 -53 -19 0 -16 10 9 37 20 22 48 31 48 16z m-1550 -12 c0
-12 -20 -25 -27 -18 -7 7 6 27 18 27 5 0 9 -4 9 -9z m902 -23 c-7 -7 -12 -8
-12 -2 0 14 12 26 19 19 2 -3 -1 -11 -7 -17z m-2342 2 c0 -5 -9 -10 -20 -10
-11 0 -20 5 -20 10 0 6 9 10 20 10 11 0 20 -4 20 -10z m-3225 -10 c-3 -5 -16
-10 -28 -10 -18 0 -19 2 -7 10 20 13 43 13 35 0z m820 -70 c-30 -45 -55 -83
-55 -86 0 -3 -9 -24 -19 -47 -10 -23 -22 -65 -26 -94 -7 -57 -26 -90 -43 -79
-26 16 -10 106 29 166 5 8 16 30 24 48 9 17 19 32 24 32 5 0 12 12 16 27 3 15
16 37 28 48 12 12 29 31 37 43 8 12 20 22 27 22 7 0 -12 -36 -42 -80z m4403
68 c-7 -19 -38 -22 -38 -4 0 10 9 16 21 16 12 0 19 -5 17 -12z m-618 -17 c0
-10 -24 -21 -43 -21 -7 0 -3 7 7 15 22 17 36 19 36 6z m-1480 -9 c0 -11 -22
-32 -32 -32 -5 0 -4 9 2 20 11 20 30 28 30 12z m2388 -40 c5 -17 -27 -27 -41
-13 -9 9 -8 14 3 21 18 11 32 8 38 -8z m-2453 -12 c-3 -5 -11 -10 -16 -10 -6
0 -7 5 -4 10 3 6 11 10 16 10 6 0 7 -4 4 -10z m700 0 c-3 -5 -13 -10 -21 -10
-8 0 -12 5 -9 10 3 6 13 10 21 10 8 0 12 -4 9 -10z m-365 -7 c0 -7 -16 -19
-81 -58 -9 -6 -23 -16 -30 -22 -20 -15 -69 -25 -69 -14 0 11 81 63 130 84 41
18 50 20 50 10z m2010 -23 c0 -11 -50 -34 -58 -26 -2 3 -2 12 1 21 7 17 57 21
57 5z m-4850 -30 c0 -5 -5 -10 -11 -10 -5 0 -7 5 -4 10 3 6 8 10 11 10 2 0 4
-4 4 -10z m-225 -20 c-6 -10 -152 -110 -161 -110 -13 0 0 25 23 43 87 69 161
105 138 67z m4995 -3 c0 -34 -57 -50 -79 -23 -10 11 -8 17 6 25 26 15 73 14
73 -2z m-112 -41 c2 -11 -4 -16 -21 -16 -17 0 -32 -12 -52 -39 -28 -42 -49
-45 -58 -8 -3 12 -8 32 -12 44 -6 18 -2 22 23 28 17 3 36 12 42 20 9 11 16 11
43 0 18 -7 33 -20 35 -29z m-5363 4 c-3 -5 -10 -10 -16 -10 -5 0 -9 5 -9 10 0
6 7 10 16 10 8 0 12 -4 9 -10z m3347 -12 c-6 -6 -15 -8 -19 -4 -4 4 -1 11 7
16 19 12 27 3 12 -12z m148 7 c0 -8 -9 -15 -20 -15 -20 0 -26 11 -13 23 12 13
33 7 33 -8z m-3750 -5 c0 -5 -7 -10 -16 -10 -8 0 -12 5 -9 10 3 6 10 10 16 10
5 0 9 -4 9 -10z m5660 -44 c0 -23 -66 -78 -91 -74 -35 5 -34 27 3 42 18 8 42
24 52 35 19 21 36 20 36 -3z m1220 -6 c0 -13 -28 -25 -38 -16 -3 4 0 11 8 16
20 13 30 12 30 0z m-9740 -8 c0 -13 -12 -22 -22 -16 -10 6 -1 24 13 24 5 0 9
-4 9 -8z m7980 -14 c15 -10 22 -10 32 0 28 28 51 7 26 -24 -40 -47 -39 -46
-64 -19 -12 14 -28 25 -33 25 -6 0 -8 7 -5 15 7 18 18 19 44 3z m-4832 -20
c-6 -16 -36 -34 -44 -26 -3 4 -4 14 -1 23 7 17 51 21 45 3z m3437 -8 c-3 -5
-11 -10 -16 -10 -6 0 -7 5 -4 10 3 6 11 10 16 10 6 0 7 -4 4 -10z m3025 0 c0
-5 -7 -10 -15 -10 -8 0 -15 5 -15 10 0 6 7 10 15 10 8 0 15 -4 15 -10z m-220
-19 c0 -10 -30 -24 -37 -17 -3 3 -2 9 2 15 8 13 35 15 35 2z m-1636 -10 c7
-10 -17 -21 -45 -21 -19 0 -25 11 -12 23 9 10 51 8 57 -2z m-1279 -28 c-11 -7
-22 -13 -27 -13 -14 0 -8 19 9 29 25 13 40 1 18 -16z m2295 7 c0 -11 -4 -20
-10 -20 -5 0 -10 9 -10 20 0 11 5 20 10 20 6 0 10 -9 10 -20z m-435 1 c6 -10
-25 -31 -45 -31 -8 0 -8 6 0 20 11 21 35 27 45 11z m-705 -31 c0 -6 -12 -15
-26 -20 -42 -16 -51 -11 -19 10 34 22 45 25 45 10z m105 -140 c3 -6 -4 -10
-17 -10 -18 0 -20 2 -8 10 19 12 18 12 25 0z m416 -20 c-24 -21 -41 -26 -41
-12 0 15 24 32 45 32 19 -1 19 -1 -4 -20z m29 -100 c0 -5 -2 -10 -4 -10 -3 0
-8 5 -11 10 -3 6 -1 10 4 10 6 0 11 -4 11 -10z m-6350 -180 c0 -6 -10 -15 -22
-19 -28 -11 -50 5 -28 19 20 13 50 13 50 0z m-115 -13 c23 -17 12 -37 -21 -37
-28 0 -44 28 -23 41 19 12 22 11 44 -4z m1365 -63 c0 -8 -9 -14 -20 -14 -22 0
-28 26 -7 33 16 6 27 -1 27 -19z m-90 -24 c0 -12 -28 -25 -36 -17 -9 9 6 27
22 27 8 0 14 -5 14 -10z m9072 -132 c-15 -15 -26 -4 -18 18 5 13 9 15 18 6 9
-9 9 -15 0 -24z m-4774 -60 c-6 -18 -95 -64 -105 -55 -13 13 11 39 47 52 47
17 62 18 58 3z m957 -308 c3 -5 -1 -10 -9 -10 -9 0 -16 5 -16 10 0 6 4 10 9
10 6 0 13 -4 16 -10z m-6925 -65 c0 -10 -10 -15 -30 -15 -36 0 -38 7 -7 20 32
13 37 12 37 -5z m580 -54 c0 -5 -7 -11 -15 -15 -15 -5 -20 5 -8 17 9 10 23 9
23 -2z m-100 -30 c0 -21 -25 -51 -41 -51 -19 0 -21 31 -4 50 23 25 45 26 45 1z
m7368 -97 c3 -18 -8 -26 -63 -48 -64 -26 -105 -32 -118 -19 -12 12 15 32 52
39 20 4 49 18 65 31 33 28 60 27 64 -3z m-2253 -103 c7 -13 -32 -34 -47 -25
-7 5 -5 11 7 21 22 15 32 16 40 4z m1805 -10 c0 -11 -36 -21 -77 -21 -35 0
-45 15 -15 23 31 8 92 7 92 -2z m-260 -31 c0 -16 -39 -27 -120 -34 l-75 -6 50
25 c51 25 145 35 145 15z m-1390 -10 c0 -5 -4 -10 -10 -10 -5 0 -10 5 -10 10
0 6 5 10 10 10 6 0 10 -4 10 -10z m-282 -102 c-5 -15 -48 -24 -48 -10 0 14 12
22 33 22 10 0 17 -5 15 -12z m747 -27 c6 -11 -11 -17 -77 -26 -50 -6 -64 5
-30 24 22 13 99 14 107 2z m-349 -66 c-19 -21 -33 -25 -75 -25 -62 0 -67 -21
-8 -31 21 -3 40 -9 43 -12 10 -10 -60 -24 -92 -20 -17 3 -44 -2 -60 -10 -16
-8 -54 -18 -84 -22 -30 -3 -63 -9 -72 -11 -21 -6 -25 28 -5 44 16 13 159 62
182 62 10 0 27 8 38 17 10 10 42 20 70 24 92 11 89 12 63 -16z m-536 -79 c0
-7 -6 -19 -14 -25 -12 -10 -17 -8 -25 7 -6 11 -7 22 -4 26 12 11 43 6 43 -8z
m-405 -6 c3 -5 1 -19 -5 -30 -9 -17 -19 -20 -47 -18 -48 4 -53 25 -11 43 39
17 55 18 63 5z m-117 -22 c3 -13 -3 -18 -20 -18 -31 0 -52 15 -43 29 11 18 59
9 63 -11z m-130 -25 c16 -31 3 -43 -48 -43 -31 0 -52 -5 -60 -15 -22 -27 -36
0 -16 30 29 44 107 61 124 28z m1276 9 c3 -5 -26 -15 -64 -21 -38 -7 -80 -21
-94 -32 -13 -11 -40 -19 -59 -19 -20 0 -66 -7 -102 -15 -64 -15 -105 -13 -105
5 0 14 92 40 144 40 29 0 64 7 81 17 17 9 62 20 100 23 39 4 75 7 82 8 6 1 14
-2 17 -6z m-679 -23 c4 -5 18 -14 31 -19 21 -8 23 -14 18 -37 -4 -16 -8 -29
-9 -31 -8 -10 -221 -13 -253 -4 -20 6 -54 14 -75 17 -21 3 -35 10 -32 16 8 12
102 12 110 -1 8 -13 42 -13 51 1 3 6 1 15 -7 19 -9 6 -4 10 17 15 16 3 43 12
59 20 36 17 81 19 90 4z m158 -16 c-9 -16 -18 -30 -19 -31 -6 -9 -74 23 -74
34 0 17 17 22 68 23 l42 1 -17 -27z m674 -39 c-3 -3 -12 -4 -19 -1 -8 3 -5 6
6 6 11 1 17 -2 13 -5z m-1276 -37 c-13 -13 -26 -3 -16 12 3 6 11 8 17 5 6 -4
6 -10 -1 -17z m-941 -94 c0 -7 -4 -13 -9 -13 -5 0 -16 -3 -25 -6 -12 -5 -16 0
-16 18 0 36 21 53 37 31 7 -9 13 -23 13 -30z m-855 18 c19 -8 19 -8 0 -18 -11
-6 -58 -20 -104 -32 -47 -11 -103 -31 -125 -43 -23 -12 -63 -25 -91 -29 -27
-4 -66 -10 -86 -14 -27 -5 -40 -3 -53 10 -51 51 37 86 314 124 83 11 120 12
145 2z m2562 -17 c-3 -3 -12 -4 -19 -1 -8 3 -5 6 6 6 11 1 17 -2 13 -5z m-452
-24 c-3 -5 -18 -10 -33 -9 l-27 1 25 8 c35 11 42 11 35 0z m-2620 -50 c-3 -5
-20 -10 -36 -10 -18 0 -28 4 -24 10 3 6 20 10 36 10 18 0 28 -4 24 -10z m3228
-67 c-7 -2 -21 -2 -30 0 -10 3 -4 5 12 5 17 0 24 -2 18 -5z m-6123 -193 c0 -5
-16 -10 -36 -10 -21 0 -33 4 -29 10 3 6 19 10 36 10 16 0 29 -4 29 -10z m5200
-10 c0 -5 -5 -10 -11 -10 -5 0 -7 5 -4 10 3 6 8 10 11 10 2 0 4 -4 4 -10z
m129 -16 c-12 -15 -41 -19 -53 -7 -9 10 35 32 51 26 10 -4 11 -9 2 -19z m831
-74 c0 -15 -27 -23 -47 -16 -15 6 -15 8 -3 16 20 13 50 12 50 0z m-640 -30 c0
-15 -79 -35 -91 -23 -6 6 -8 16 -5 22 9 14 96 15 96 1z m298 4 c12 -4 22 -10
22 -15 0 -12 -33 -18 -120 -21 -43 -2 -77 1 -80 7 -12 23 119 44 178 29z
m-630 -121 l37 -16 -68 -13 c-60 -12 -73 -12 -98 1 -17 9 -39 13 -54 9 -14 -3
-37 -3 -52 1 l-28 8 25 7 c14 4 41 6 60 4 27 -3 118 7 138 15 1 0 19 -6 40
-16z m610 -5 c-3 -9 -35 -13 -104 -15 -95 -1 -97 -1 -59 12 53 18 168 20 163
3z m-448 -78 c-20 -13 -40 -13 -40 0 0 6 12 10 28 10 21 0 24 -2 12 -10z m268
-612 c-5 -15 -65 -29 -86 -20 -12 4 -12 7 4 19 23 17 87 18 82 1z m888 -172
c13 -10 16 -18 9 -25 -18 -18 -115 -51 -149 -51 -47 0 -96 11 -96 21 0 20 131
67 191 68 14 1 34 -5 45 -13z m-7583 -1120 c125 -55 197 -188 151 -277 -30
-59 -142 -86 -236 -57 -82 24 -152 123 -153 215 0 119 112 175 238 119z
m12243 -22 c8 -20 13 -43 10 -51 -9 -22 -39 -11 -46 17 l-6 25 -12 -22 c-7
-12 -12 -34 -12 -49 0 -25 2 -26 39 -20 26 4 42 2 47 -5 9 -15 -23 -39 -52
-39 -20 0 -22 -3 -16 -42 12 -81 9 -103 -13 -103 -16 0 -21 11 -30 65 -10 62
-11 64 -40 65 -43 0 -48 33 -6 41 17 4 28 11 25 16 -10 16 7 87 28 113 30 38
65 33 84 -11z m-11761 -14 c69 -100 41 -270 -45 -270 -45 0 -65 33 -64 104 2
130 8 163 34 185 35 29 43 26 75 -19z m11055 -6 c6 -14 10 -32 10 -40 0 -22
-31 -30 -45 -11 -15 21 -33 21 -57 0 -30 -27 -21 -41 34 -58 63 -18 88 -40 88
-75 0 -33 -15 -52 -60 -79 -58 -35 -110 -24 -125 27 -9 32 24 43 43 14 19 -29
34 -28 72 4 38 33 29 47 -46 69 -80 23 -97 70 -43 124 27 27 70 47 107 50 7 1
17 -11 22 -25z m-10756 8 c3 -5 -2 -31 -10 -58 -9 -27 -17 -92 -20 -144 -3
-67 -8 -95 -16 -95 -9 0 -14 24 -16 78 l-3 78 -26 -21 c-46 -36 -83 -21 -83
34 0 37 84 122 127 129 15 2 31 5 35 6 4 0 9 -3 12 -7z m11187 -9 c8 -9 14
-35 14 -59 0 -32 -7 -51 -32 -82 -18 -23 -33 -43 -33 -46 0 -11 47 -30 100
-41 36 -7 55 -16 55 -25 0 -22 -67 -25 -123 -6 -25 9 -47 16 -49 16 -2 0 -3
-15 -3 -34 0 -18 -7 -39 -15 -46 -31 -26 -40 4 -42 137 l-3 125 31 39 c34 43
76 52 100 22z m-11663 -5 c21 -21 13 -71 -22 -145 l-35 -72 40 16 c49 19 76 5
38 -20 -30 -19 -117 -42 -126 -33 -4 4 14 48 40 99 26 51 47 100 47 109 0 30
-20 30 -38 -1 -19 -34 -42 -41 -42 -12 0 49 68 89 98 59z m267 -124 c0 -98 -3
-119 -15 -119 -12 0 -14 21 -12 120 0 66 1 122 2 123 0 2 6 2 13 0 9 -4 12
-37 12 -124z m11077 14 c-3 -74 13 -133 28 -108 5 8 17 48 26 88 13 57 20 72
33 70 15 -3 21 -24 37 -135 3 -19 11 -33 19 -33 21 0 28 -19 15 -35 -18 -22
-47 -18 -64 7 l-16 22 -23 -22 c-28 -27 -49 -28 -70 -4 -18 20 -36 90 -31 124
13 92 15 99 32 96 14 -3 17 -14 14 -70z"/>
<path d="M9363 8553 c-13 -8 -23 -25 -23 -36 0 -19 3 -18 30 11 41 46 38 57
-7 25z"/>
<path d="M1707 8343 c-4 -3 -7 -11 -7 -17 0 -6 5 -5 12 2 6 6 9 14 7 17 -3 3
-9 2 -12 -2z"/>
<path d="M5682 6594 c1 -9 9 -19 16 -22 9 -3 13 2 10 14 -1 9 -9 19 -16 22 -9
3 -13 -2 -10 -14z"/>
<path d="M801 864 c-25 -32 -29 -120 -7 -163 20 -38 80 -89 114 -97 15 -3 32
-7 39 -9 45 -14 143 55 143 101 0 38 -46 120 -82 147 -38 29 -96 47 -150 47
-28 0 -42 -6 -57 -26z m145 -28 c9 -36 1 -71 -16 -71 -11 0 -14 9 -12 33 4 42
-5 41 -24 -3 -21 -52 -19 -122 5 -135 30 -15 53 -12 107 15 57 29 64 30 64 10
0 -21 -96 -65 -142 -65 -67 0 -101 65 -78 151 16 62 36 89 65 89 18 0 26 -7
31 -24z"/>
<path d="M1379 813 c-28 -102 -11 -195 34 -178 47 19 50 186 3 217 -19 13 -23
9 -37 -39z"/>
<path d="M1664 821 c-45 -28 -86 -101 -55 -101 21 0 101 103 89 116 -2 2 -17
-5 -34 -15z"/>
<path d="M12872 815 c-14 -31 -16 -89 -2 -80 16 10 35 84 23 96 -6 6 -13 1
-21 -16z"/>
<path d="M11228 11745 c-4 -55 15 -61 32 -10 12 37 7 55 -15 55 -8 0 -14 -16
-17 -45z"/>
<path d="M11153 11705 c-20 -22 -15 -35 11 -35 29 0 39 12 30 34 -8 20 -25 20
-41 1z"/>
<path d="M12000 11659 c0 -18 2 -19 15 -9 15 12 12 30 -6 30 -5 0 -9 -10 -9
-21z"/>
<path d="M11200 11635 c0 -9 5 -15 11 -13 6 2 11 8 11 13 0 5 -5 11 -11 13 -6
2 -11 -4 -11 -13z"/>
<path d="M12090 11630 c0 -5 5 -10 10 -10 6 0 10 5 10 10 0 6 -4 10 -10 10 -5
0 -10 -4 -10 -10z"/>
<path d="M10999 11596 c-15 -31 -8 -40 21 -31 14 5 20 13 18 28 -4 31 -26 32
-39 3z"/>
<path d="M9237 11603 c-4 -3 -4 -21 -1 -40 5 -28 3 -34 -20 -44 -15 -7 -29
-24 -33 -38 -8 -33 -20 -41 -60 -41 -39 0 -75 -42 -54 -63 9 -9 16 -9 31 1 11
6 28 12 39 12 29 0 51 11 51 24 0 7 11 23 25 36 13 13 32 48 40 78 14 47 14
57 3 69 -8 7 -17 10 -21 6z"/>
<path d="M11974 11589 c-15 -18 -25 -210 -12 -232 14 -26 44 -20 69 14 18 26
19 33 8 40 -8 5 -17 9 -21 9 -9 0 -11 50 -2 50 16 0 44 -23 44 -35 0 -16 25
-21 34 -7 3 5 -2 25 -11 45 -12 25 -25 38 -45 42 -32 7 -39 16 -47 58 -5 24
-9 27 -17 16z"/>
<path d="M12096 11574 c-24 -23 -16 -49 14 -49 29 0 40 34 17 54 -12 9 -18 8
-31 -5z"/>
<path d="M9132 11564 c-12 -8 -22 -22 -22 -30 0 -23 54 -14 58 10 6 28 -11 38
-36 20z"/>
<path d="M9045 11500 c-3 -5 1 -10 9 -10 9 0 16 5 16 10 0 6 -4 10 -9 10 -6 0
-13 -4 -16 -10z"/>
<path d="M8950 11446 c0 -7 7 -19 15 -26 16 -13 20 -3 9 24 -8 20 -24 21 -24
2z"/>
<path d="M9380 11405 c-41 -15 -50 -39 -21 -55 12 -6 21 -18 21 -28 0 -15 2
-15 10 -2 5 8 10 27 10 43 0 23 4 27 30 27 25 0 30 -4 30 -24 0 -32 17 -42 38
-22 10 8 27 13 38 10 14 -4 23 0 28 11 11 29 -12 45 -63 43 -25 -1 -55 1 -66
4 -11 4 -36 0 -55 -7z"/>
<path d="M12135 11379 c-10 -15 3 -25 16 -12 7 7 7 13 1 17 -6 3 -14 1 -17 -5z"/>
<path d="M8890 11361 c-5 -11 -10 -27 -10 -36 0 -13 7 -10 29 11 17 15 28 31
25 36 -9 15 -33 8 -44 -11z"/>
<path d="M9074 11296 c-3 -14 -12 -30 -20 -37 -20 -17 -17 -39 5 -39 25 0 63
48 59 74 -4 31 -36 33 -44 2z"/>
<path d="M11375 11290 c5 -15 -3 -25 -34 -45 -46 -31 -57 -53 -37 -73 20 -20
41 -10 70 35 18 28 23 47 19 71 -3 17 -10 32 -15 32 -5 0 -7 -9 -3 -20z"/>
<path d="M10500 11245 c0 -28 15 -34 24 -9 10 25 7 34 -9 34 -9 0 -15 -9 -15
-25z"/>
<path d="M8887 11233 c-24 -24 47 -63 86 -47 18 6 30 32 21 45 -6 10 -97 12
-107 2z"/>
<path d="M11460 11190 c0 -5 5 -10 10 -10 6 0 10 5 10 10 0 6 -4 10 -10 10 -5
0 -10 -4 -10 -10z"/>
<path d="M11155 11140 c-3 -5 -5 -10 -3 -11 36 -8 48 -7 48 6 0 17 -35 21 -45
5z"/>
<path d="M10994 10466 c-8 -22 3 -33 18 -18 9 9 9 15 0 24 -9 9 -13 7 -18 -6z"/>
<path d="M486 10453 c-11 -11 -6 -23 9 -23 8 0 15 4 15 9 0 13 -16 22 -24 14z"/>
<path d="M10715 10334 c-9 -14 -14 -28 -11 -31 8 -9 46 27 46 44 0 21 -16 15
-35 -13z"/>
<path d="M1862 10309 c2 -6 8 -10 13 -10 5 0 11 4 13 10 2 6 -4 11 -13 11 -9
0 -15 -5 -13 -11z"/>
<path d="M10805 10290 c-8 -13 4 -32 16 -25 12 8 12 35 0 35 -6 0 -13 -4 -16
-10z"/>
<path d="M11006 10258 c-20 -29 -21 -67 0 -75 22 -8 32 6 36 51 4 46 -13 57
-36 24z"/>
<path d="M13980 10190 c0 -5 5 -10 10 -10 6 0 10 5 10 10 0 6 -4 10 -10 10 -5
0 -10 -4 -10 -10z"/>
<path d="M4865 10110 c-48 -5 -50 -6 -53 -37 -3 -26 -8 -33 -25 -33 -14 0 -29
-11 -40 -29 -19 -33 -23 -81 -6 -81 18 0 69 60 69 81 0 21 29 26 48 7 8 -8 14
-5 22 16 5 15 10 32 10 37 0 5 6 9 14 9 18 0 31 19 20 29 -5 3 -31 4 -59 1z"/>
<path d="M3498 10043 c7 -3 16 -2 19 1 4 3 -2 6 -13 5 -11 0 -14 -3 -6 -6z"/>
<path d="M3715 10040 c3 -5 10 -10 16 -10 5 0 9 5 9 10 0 6 -7 10 -16 10 -8 0
-12 -4 -9 -10z"/>
<path d="M3528 9973 c-14 -16 -24 -33 -21 -40 2 -6 -1 -14 -7 -18 -7 -4 -14 2
-17 14 -3 14 -13 21 -28 21 -12 0 -28 7 -35 15 -17 21 -37 19 -50 -6 -11 -20
-12 -20 -31 -3 -10 9 -19 13 -19 8 0 -5 -10 -14 -22 -19 -25 -11 -37 -60 -19
-78 6 -6 11 -24 11 -39 0 -20 -5 -28 -18 -28 -13 0 -18 -9 -20 -32 -2 -18 -5
-34 -8 -37 -3 -3 10 -11 28 -17 26 -8 35 -19 44 -49 17 -60 38 -59 29 1 -4 27
-11 52 -16 55 -9 5 -9 59 1 59 12 -1 70 -80 70 -98 0 -43 35 -36 45 9 4 19 16
34 31 39 32 13 39 34 20 62 -26 37 -20 55 26 70 36 12 43 19 54 59 12 39 12
46 -4 62 -17 17 -19 16 -44 -10z m-68 -178 c15 -18 5 -52 -20 -65 -15 -8 -19
-5 -25 27 -4 25 -2 38 7 44 18 12 24 11 38 -6z"/>
<path d="M5484 9985 c-7 -18 2 -45 15 -45 5 0 11 7 15 15 7 18 -2 45 -15 45
-5 0 -12 -7 -15 -15z"/>
<path d="M10482 9979 c2 -7 10 -15 17 -17 8 -3 12 1 9 9 -2 7 -10 15 -17 17
-8 3 -12 -1 -9 -9z"/>
<path d="M3664 9966 c-8 -22 3 -33 18 -18 9 9 9 15 0 24 -9 9 -13 7 -18 -6z"/>
<path d="M10565 9970 c-3 -5 1 -10 9 -10 9 0 16 5 16 10 0 6 -4 10 -9 10 -6 0
-13 -4 -16 -10z"/>
<path d="M5545 9930 c-17 -32 -80 -100 -94 -100 -15 0 -20 27 -11 66 14 62 -8
75 -36 22 -9 -18 -26 -39 -37 -47 -15 -11 -18 -21 -13 -52 5 -33 3 -41 -19
-55 -47 -30 -22 -61 26 -31 18 10 23 9 40 -12 10 -13 19 -31 19 -42 0 -28 20
-33 42 -11 25 24 57 115 58 160 0 26 4 32 23 32 12 1 44 21 71 45 40 36 46 45
33 51 -10 3 -24 1 -33 -6 -11 -10 -18 -10 -26 -2 -18 18 -26 15 -43 -18z
m-113 -117 c2 -5 16 -15 31 -24 35 -19 36 -33 3 -37 -17 -2 -30 5 -45 26 -12
17 -21 33 -21 36 0 9 28 7 32 -1z"/>
<path d="M10542 9873 c4 -22 38 -30 38 -10 0 8 -7 18 -16 21 -23 9 -26 8 -22
-11z"/>
<path d="M10460 9870 c0 -5 5 -10 10 -10 6 0 10 5 10 10 0 6 -4 10 -10 10 -5
0 -10 -4 -10 -10z"/>
<path d="M10418 9855 c-9 -9 26 -74 40 -75 22 0 18 49 -6 68 -17 13 -26 15
-34 7z"/>
<path d="M10417 9763 c-9 -9 -9 -43 1 -43 18 1 34 19 29 34 -7 17 -19 21 -30
9z"/>
<path d="M10346 9729 c-10 -31 -16 -99 -9 -99 5 1 18 17 31 37 l23 36 -20 20
c-16 17 -21 18 -25 6z"/>
<path d="M5955 9701 c-3 -5 -1 -12 5 -16 5 -3 10 1 10 9 0 18 -6 21 -15 7z"/>
<path d="M10110 9700 c0 -5 5 -10 10 -10 6 0 10 5 10 10 0 6 -4 10 -10 10 -5
0 -10 -4 -10 -10z"/>
<path d="M3227 9680 c-6 -24 8 -36 17 -14 8 22 7 34 -3 34 -5 0 -11 -9 -14
-20z"/>
<path d="M5812 9618 c-10 -38 -5 -58 14 -58 10 0 14 13 14 45 0 52 -16 59 -28
13z"/>
<path d="M5946 9615 c-18 -47 6 -74 35 -39 9 11 10 20 3 32 -15 23 -31 26 -38
7z"/>
<path d="M7318 9493 c-16 -2 -28 -9 -28 -14 0 -14 54 -11 76 6 19 14 19 14 -1
13 -11 0 -32 -3 -47 -5z"/>
<path d="M10040 9430 c0 -5 -13 -22 -30 -37 -23 -20 -27 -29 -19 -40 17 -20
28 -16 35 12 3 13 12 29 20 36 16 13 19 39 4 39 -5 0 -10 -4 -10 -10z"/>
<path d="M290 9390 c0 -5 5 -10 10 -10 6 0 10 5 10 10 0 6 -4 10 -10 10 -5 0
-10 -4 -10 -10z"/>
<path d="M7368 9373 c6 -2 18 -2 25 0 6 3 1 5 -13 5 -14 0 -19 -2 -12 -5z"/>
<path d="M5801 9327 c-12 -15 4 -24 66 -42 19 -5 21 -3 14 22 -6 22 -14 29
-38 31 -17 2 -35 -3 -42 -11z"/>
<path d="M5930 9320 c0 -7 -7 -22 -17 -32 -13 -14 -13 -18 -2 -18 21 0 43 40
30 53 -8 8 -11 7 -11 -3z"/>
<path d="M1837 9081 c-21 -35 -21 -41 -3 -41 16 0 46 37 46 57 0 23 -25 14
-43 -16z"/>
<path d="M7664 9005 c-4 -8 -4 -32 -1 -52 12 -77 12 -86 0 -90 -7 -3 -16 10
-21 29 l-8 33 -13 -24 c-12 -21 -11 -61 0 -111 3 -10 -5 -16 -22 -18 -23 -3
-25 0 -21 26 5 36 -20 61 -43 42 -22 -18 -18 -43 10 -68 14 -13 25 -33 25 -47
0 -25 -14 -33 -25 -15 -13 22 -35 10 -35 -19 0 -17 -4 -33 -10 -36 -5 -3 -10
-32 -10 -64 0 -32 -7 -75 -15 -94 -8 -20 -15 -47 -15 -60 0 -14 -16 -57 -36
-96 -20 -40 -33 -75 -30 -78 3 -3 9 3 12 13 4 10 20 34 36 52 19 22 28 44 28
66 0 19 7 39 15 46 9 7 27 38 42 67 20 44 29 54 44 50 11 -3 32 1 48 9 26 13
28 17 23 62 -3 36 0 51 12 61 9 7 16 19 16 27 0 7 14 29 30 47 25 29 30 43 30
84 0 27 -5 54 -12 61 -6 6 -11 28 -10 48 2 52 -30 87 -44 49z"/>
<path d="M1790 8990 c0 -5 7 -10 16 -10 8 0 12 5 9 10 -3 6 -10 10 -16 10 -5
0 -9 -4 -9 -10z"/>
<path d="M970 8930 c0 -5 5 -10 11 -10 5 0 7 5 4 10 -3 6 -8 10 -11 10 -2 0
-4 -4 -4 -10z"/>
<path d="M887 8910 c-15 -22 -82 -70 -98 -70 -6 0 -17 7 -26 15 -23 23 -47 14
-51 -18 -3 -27 -2 -28 30 -22 30 6 34 4 45 -24 8 -24 17 -31 37 -31 14 0 26 4
26 8 0 5 15 34 34 65 44 73 52 97 32 97 -8 0 -21 -9 -29 -20z"/>
<path d="M5623 8553 c-7 -2 -13 -15 -13 -28 0 -34 48 -42 56 -9 9 37 -8 52
-43 37z"/>
<path d="M5665 8410 c-11 -17 5 -32 21 -19 7 6 11 15 8 20 -7 12 -21 11 -29
-1z"/>
<path d="M5647 8323 c-4 -3 -7 -15 -7 -25 0 -26 24 -17 28 10 3 21 -8 29 -21
15z"/>
<path d="M7279 8154 c-21 -24 -34 -80 -20 -88 16 -10 43 40 39 74 -3 31 -4 32
-19 14z"/>
<path d="M7156 8118 c-29 -41 -14 -84 18 -52 17 17 21 59 7 69 -5 3 -17 -5
-25 -17z"/>
<path d="M5620 8026 c0 -15 18 -31 26 -23 7 7 -7 37 -17 37 -5 0 -9 -6 -9 -14z"/>
<path d="M5308 7777 c-7 -12 -18 -31 -25 -42 -7 -11 -17 -32 -24 -47 -8 -22
-18 -28 -40 -28 -22 0 -29 -5 -29 -19 0 -30 17 -34 46 -12 34 27 70 27 77 1 6
-25 42 -27 52 -3 4 12 -1 23 -13 33 -26 21 -53 65 -45 73 3 4 14 7 24 7 22 0
31 13 23 33 -10 26 -33 28 -46 4z"/>
<path d="M5750 7482 c0 -6 -10 -20 -22 -31 -17 -17 -19 -23 -8 -36 7 -8 18
-15 25 -15 15 0 28 71 15 84 -7 7 -10 6 -10 -2z"/>
<path d="M6061 7444 c-63 -72 -56 -123 24 -170 25 -14 52 -36 60 -47 19 -27
30 -17 56 58 11 32 29 76 40 97 33 65 0 119 -58 97 -14 -5 -34 -4 -49 1 -14 6
-27 10 -29 10 -2 0 -22 -21 -44 -46z"/>
<path d="M5660 7435 c0 -8 5 -15 10 -15 6 0 10 7 10 15 0 8 -4 15 -10 15 -5 0
-10 -7 -10 -15z"/>
<path d="M5742 7348 c-20 -20 -14 -38 13 -38 26 0 29 7 19 34 -7 19 -16 20
-32 4z"/>
<path d="M5250 7334 c0 -10 7 -14 22 -12 32 5 35 28 4 28 -17 0 -26 -5 -26
-16z"/>
<path d="M4985 7320 c3 -5 11 -10 16 -10 6 0 7 5 4 10 -3 6 -11 10 -16 10 -6
0 -7 -4 -4 -10z"/>
<path d="M5355 7273 c-80 -94 -87 -104 -80 -120 6 -17 7 -17 21 1 8 11 14 25
14 32 0 7 16 21 35 33 25 15 35 27 35 46 0 30 -5 31 -25 8z"/>
<path d="M5110 7190 c0 -5 5 -10 10 -10 6 0 10 5 10 10 0 6 -4 10 -10 10 -5 0
-10 -4 -10 -10z"/>
<path d="M5050 7150 c0 -11 6 -20 13 -20 8 0 22 9 32 20 18 20 17 20 -13 20
-25 0 -32 -4 -32 -20z"/>
<path d="M5864 7155 c-4 -8 -1 -22 6 -30 17 -20 5 -32 -15 -15 -13 11 -20 8
-45 -20 -36 -40 -36 -48 -9 -102 28 -55 47 -39 32 29 -13 54 -8 73 13 46 13
-17 15 -17 34 7 24 29 34 64 26 85 -7 19 -35 19 -42 0z"/>
<path d="M5944 7016 c-8 -22 3 -49 19 -43 6 2 12 14 12 27 0 27 -22 39 -31 16z"/>
<path d="M5920 6850 c0 -5 4 -10 9 -10 6 0 13 5 16 10 3 6 -1 10 -9 10 -9 0
-16 -4 -16 -10z"/>
<path d="M5980 6825 c-5 -14 -14 -25 -20 -25 -5 0 -10 -9 -10 -20 0 -27 6 -25
42 10 17 18 28 37 24 45 -8 23 -25 18 -36 -10z"/>
<path d="M5807 6793 c-26 -7 -10 -23 24 -23 19 0 29 5 29 15 0 15 -17 17 -53
8z"/>
<path d="M13580 4891 c0 -13 26 -32 33 -24 8 7 -11 33 -24 33 -5 0 -9 -4 -9
-9z"/>
<path d="M266 4393 c-3 -3 -3 -10 0 -14 7 -12 34 -11 34 0 0 11 -26 22 -34 14z"/>
<path d="M410 4160 c-12 -7 -12 -12 -2 -22 9 -9 15 -9 24 0 16 16 -2 34 -22
22z"/>
<path d="M270 3920 c0 -5 5 -10 10 -10 6 0 10 5 10 10 0 6 -4 10 -10 10 -5 0
-10 -4 -10 -10z"/>
<path d="M30 3860 c0 -5 5 -10 10 -10 6 0 10 5 10 10 0 6 -4 10 -10 10 -5 0
-10 -4 -10 -10z"/>
<path d="M326 3733 c-11 -11 -6 -23 9 -23 8 0 15 4 15 9 0 13 -16 22 -24 14z"/>
<path d="M244 3399 c-3 -6 -2 -15 2 -19 12 -12 38 5 30 19 -9 14 -23 14 -32 0z"/>
<path d="M170 3280 c0 -5 7 -10 15 -10 8 0 15 5 15 10 0 6 -7 10 -15 10 -8 0
-15 -4 -15 -10z"/>
<path d="M100 3175 c0 -8 5 -15 10 -15 6 0 10 7 10 15 0 8 -4 15 -10 15 -5 0
-10 -7 -10 -15z"/>
<path d="M150 2995 c0 -9 5 -15 11 -13 6 2 11 8 11 13 0 5 -5 11 -11 13 -6 2
-11 -4 -11 -13z"/>
<path d="M400 2084 c0 -17 22 -14 28 4 2 7 -3 12 -12 12 -9 0 -16 -7 -16 -16z"/>
<path d="M111 1407 c-12 -15 -5 -27 16 -27 7 0 13 9 13 20 0 23 -13 26 -29 7z"/>
<path d="M13966 1131 c-4 -7 -5 -15 -2 -18 9 -9 19 4 14 18 -4 11 -6 11 -12 0z"/>
<path d="M12066 332 c-11 -11 -6 -50 9 -62 8 -6 23 -9 35 -5 32 10 23 56 -12
66 -15 4 -29 4 -32 1z"/>
<path d="M7870 320 c0 -5 7 -10 15 -10 8 0 15 5 15 10 0 6 -7 10 -15 10 -8 0
-15 -4 -15 -10z"/>
<path d="M6717 293 c-4 -3 -7 -15 -7 -25 0 -21 36 -25 43 -5 9 27 -17 50 -36
30z"/>
<path d="M7207 294 c-16 -16 -7 -44 14 -44 15 0 20 5 17 22 -3 22 -19 33 -31
22z"/>
<path d="M8146 283 c-11 -11 -6 -23 9 -23 8 0 15 4 15 9 0 13 -16 22 -24 14z"/>
<path d="M6280 150 c0 -23 22 -27 39 -7 13 16 5 27 -21 27 -11 0 -18 -7 -18
-20z"/>
<path d="M12335 160 c3 -5 8 -10 11 -10 2 0 4 5 4 10 0 6 -5 10 -11 10 -5 0
-7 -4 -4 -10z"/>
<path d="M6034 146 c-7 -18 20 -45 44 -46 20 0 10 31 -15 47 -20 14 -23 14
-29 -1z"/>
<path d="M1655 129 c-4 -6 -4 -13 -1 -16 8 -8 36 5 36 17 0 13 -27 13 -35 -1z"/>
<path d="M7511 116 c-9 -10 -8 -16 3 -26 19 -15 36 -5 36 21 0 22 -22 25 -39
5z"/>
<path d="M11366 114 c-8 -21 1 -34 25 -34 21 0 25 20 7 38 -16 16 -25 15 -32
-4z"/>
<path d="M6130 89 c0 -5 5 -7 10 -4 6 3 10 8 10 11 0 2 -4 4 -10 4 -5 0 -10
-5 -10 -11z"/>
<path d="M1702 54 c1 -9 9 -19 16 -22 9 -3 13 2 10 14 -1 9 -9 19 -16 22 -9 3
-13 -2 -10 -14z"/>
</g>
</svg>
